<?xml version="1.0" encoding="UTF-8" standalone="no"?>
<!-- Generator: Adobe Illustrator 19.0.0, SVG Export Plug-In . SVG Version: 6.00 Build 0)  -->

<svg
   xmlns:dc="http://purl.org/dc/elements/1.1/"
   xmlns:cc="http://creativecommons.org/ns#"
   xmlns:rdf="http://www.w3.org/1999/02/22-rdf-syntax-ns#"
   xmlns:svg="http://www.w3.org/2000/svg"
   xmlns="http://www.w3.org/2000/svg"
   xmlns:sodipodi="http://sodipodi.sourceforge.net/DTD/sodipodi-0.dtd"
   xmlns:inkscape="http://www.inkscape.org/namespaces/inkscape"
   version="1.1"
   id="Layer_1"
   x="0px"
   y="0px"
   viewBox="-50.7 200.7 1416.2 500.2"
   style="enable-background:new -50.7 200.7 1416.2 500.2;"
   xml:space="preserve"
   inkscape:version="0.91 r13725"
   sodipodi:docname="gdg-logo.svg"><metadata
     id="metadata21"><rdf:RDF><cc:Work
         rdf:about=""><dc:format>image/svg+xml</dc:format><dc:type
           rdf:resource="http://purl.org/dc/dcmitype/StillImage" /></cc:Work></rdf:RDF></metadata><defs
     id="defs19" /><sodipodi:namedview
     pagecolor="#ffffff"
     bordercolor="#666666"
     borderopacity="1"
     objecttolerance="10"
     gridtolerance="10"
     guidetolerance="10"
     inkscape:pageopacity="0"
     inkscape:pageshadow="2"
     inkscape:window-width="1920"
     inkscape:window-height="1056"
     id="namedview17"
     showgrid="false"
     inkscape:zoom="0.2217201"
     inkscape:cx="-47.357005"
     inkscape:cy="250.10001"
     inkscape:window-x="0"
     inkscape:window-y="24"
     inkscape:window-maximized="1"
     inkscape:current-layer="g13" /><style
     type="text/css"
     id="style3">
	.st0{fill:#757575;}
</style><g
     id="g5"><path
       class="st0"
       d="M213.2,516.9L15.7,200.8h-54.5c-10.9,0-15.1,7.6-9.4,16.8L84.4,434l0.7,1.1l89.8,143.8L213.2,516.9z    M243.7,467.6c5.7-9.2,5.7-24.3,0-33.6l-134-216.5c-5.7-9.2-19.3-16.8-30.1-16.8h-55l193,308.9L243.7,467.6z M131.5,523.8   l-110.6,177h58.8c10.8,0,24.4-7.5,30.1-16.8l53.5-86.5c0.2-0.3,0.6-1,1.5-2.4l5.6-9.1L131.5,523.8z M84.4,467.6L-48.2,684.1   c-5.7,9.3-1.4,16.8,9.4,16.8h50.7L127,516.7l-38.6-61.9C87.9,459.6,86.6,464.1,84.4,467.6z"
       id="path7" /></g><g
     id="g9"><path
       class="st0"
       d="M418,442.5h77.1v96.3c-20.9,7.2-44,10.8-69.1,10.8c-27.5,0-48.8-8-63.9-24c-15-16-22.6-38.7-22.6-68.3   c0-28.8,8.2-51.3,24.7-67.4c16.5-16.1,39.5-24.1,69.2-24.1c11.2,0,21.9,1.1,31.8,3.2c10,2.1,18.7,4.8,26.1,8.1L476,415   c-12.9-6.4-27-9.5-42.4-9.5c-14.1,0-25,4.6-32.7,13.8c-7.7,9.2-11.6,22.3-11.6,39.3c0,16.7,3.5,29.4,10.5,38.2   c7,8.8,17,13.1,30.1,13.1c7.2,0,13.8-0.7,19.8-2.1v-28H418V442.5z M668.4,454c0,29.8-8.2,52.8-24.6,68.9   c-16.4,16.1-39.5,24.2-69.2,24.2h-57.8V368.4h61.8c28.7,0,50.8,7.3,66.4,22C660.6,405.1,668.4,426.3,668.4,454L668.4,454z    M618.3,455.7c0-16.4-3.2-28.5-9.7-36.4s-16.3-11.9-29.5-11.9H565v100.1h10.8c14.7,0,25.4-4.3,32.3-12.8   C614.9,486.2,618.3,473.2,618.3,455.7L618.3,455.7z M757.5,442.5h77.1v96.3c-20.9,7.2-44,10.8-69.1,10.8c-27.5,0-48.8-8-63.9-24   c-15-16-22.6-38.7-22.6-68.3c0-28.8,8.2-51.3,24.7-67.4c16.5-16.1,39.5-24.1,69.2-24.1c11.2,0,21.9,1.1,31.8,3.2   c10,2.1,18.7,4.8,26.1,8.1L815.5,415c-12.9-6.4-27-9.5-42.4-9.5c-14.1,0-25,4.6-32.7,13.8c-7.7,9.2-11.6,22.3-11.6,39.3   c0,16.7,3.5,29.4,10.5,38.2c7,8.8,17,13.1,30.1,13.1c7.2,0,13.8-0.7,19.8-2.1v-28h-31.9v-37.3L757.5,442.5L757.5,442.5z"
       id="path11" /></g><g
     id="g13"><text
       y="496.96747"
       x="979.04395"
       id="title"
       style="font-style:normal;font-variant:normal;font-weight:bold;font-stretch:normal;font-size:181.81669617px;line-height:125%;font-family:'Open Sans';-inkscape-font-specification:'Open Sans, Bold';text-align:start;letter-spacing:-10.30738163px;writing-mode:lr-tb;text-anchor:start;fill:#757575;fill-opacity:1"
       editable="simple"
       sodipodi:linespacing="125%"
       transform="scale(0.91244872,1.095952)">TAUG</text>
</g></svg>