<?xml version="1.0" encoding="UTF-8" standalone="no"?>
<!-- Generator: Adobe Illustrator 19.0.0, SVG Export Plug-In . SVG Version: 6.00 Build 0)  -->

<svg
   xmlns:dc="http://purl.org/dc/elements/1.1/"
   xmlns:cc="http://creativecommons.org/ns#"
   xmlns:rdf="http://www.w3.org/1999/02/22-rdf-syntax-ns#"
   xmlns:svg="http://www.w3.org/2000/svg"
   xmlns="http://www.w3.org/2000/svg"
   xmlns:sodipodi="http://sodipodi.sourceforge.net/DTD/sodipodi-0.dtd"
   xmlns:inkscape="http://www.inkscape.org/namespaces/inkscape"
   version="1.1"
   id="Layer_1"
   x="0px"
   y="0px"
   viewBox="-566.7 3726.1 635.9 200"
   style="enable-background:new -566.7 3726.1 635.9 200;"
   xml:space="preserve"
   inkscape:version="0.91 r13725"
   sodipodi:docname="logo-white.svg"><metadata
     id="metadata63"><rdf:RDF><cc:Work
         rdf:about=""><dc:format>image/svg+xml</dc:format><dc:type
           rdf:resource="http://purl.org/dc/dcmitype/StillImage" /><dc:title></dc:title></cc:Work></rdf:RDF></metadata><defs
     id="defs61" /><sodipodi:namedview
     pagecolor="#7a7e7a"
     bordercolor="#666666"
     borderopacity="1"
     objecttolerance="10"
     gridtolerance="10"
     guidetolerance="10"
     inkscape:pageopacity="1"
     inkscape:pageshadow="2"
     inkscape:window-width="1920"
     inkscape:window-height="1056"
     id="namedview59"
     showgrid="false"
     inkscape:zoom="0.49378831"
     inkscape:cx="137.71083"
     inkscape:cy="63.598837"
     inkscape:window-x="0"
     inkscape:window-y="24"
     inkscape:window-maximized="1"
     inkscape:current-layer="Layer_1" /><style
     type="text/css"
     id="style3">
	.st0{fill:#FFFFFF;}
	.st1{enable-background:new    ;}
</style><g
     id="g5"><path
       class="st0"
       d="M-461.1,3852.5l-79-126.4h-21.8c-4.4,0-6,3-3.8,6.7l53,86.5l0.3,0.4l35.9,57.5L-461.1,3852.5z"
       id="path7" /><path
       class="st0"
       d="M-448.9,3832.8c2.3-3.7,2.3-9.7,0-13.4l-53.6-86.6c-2.3-3.7-7.7-6.7-12-6.7h-22l77.2,123.5L-448.9,3832.8z"
       id="path9" /><path
       class="st0"
       d="M-493.8,3855.3l-44.2,70.8h23.5c4.3,0,9.8-3,12-6.7l21.4-34.6c0.1-0.1,0.2-0.4,0.6-1l2.2-3.6L-493.8,3855.3z"
       id="path11" /><path
       class="st0"
       d="M-512.6,3832.8l-53,86.5c-2.3,3.7-0.6,6.7,3.8,6.7h20.3l46-73.6l-15.4-24.8   C-511.2,3829.5-511.8,3831.3-512.6,3832.8z"
       id="path13" /></g><g
     class="st1"
     id="g15"><path
       class="st0"
       d="m -355.7,3786.8 c 0,8.9 -2.5,15.8 -7.4,20.7 -4.9,4.8 -11.8,7.2 -20.7,7.2 l -17.3,0 0,-53.5 18.5,0 c 8.6,0 15.2,2.2 19.9,6.6 4.6,4.4 7,10.7 7,19 z m -15.1,0.5 c 0,-4.9 -1,-8.5 -2.9,-10.9 -1.9,-2.4 -4.9,-3.6 -8.8,-3.6 l -4.2,0 0,30 3.2,0 c 4.4,0 7.6,-1.3 9.7,-3.8 2.1,-2.5 3,-6.4 3,-11.7 z"
       id="path23"
       inkscape:connector-curvature="0"
       style="fill:#ffffff" /><path
       class="st0"
       d="m -330,3815.4 c -6.9,0 -12.3,-1.8 -16.1,-5.5 -3.8,-3.7 -5.7,-8.9 -5.7,-15.7 0,-7 1.8,-12.4 5.3,-16.1 3.5,-3.7 8.6,-5.6 15.2,-5.6 6.2,0 11.1,1.6 14.5,4.9 3.4,3.3 5.1,8 5.1,14.1 l 0,6.4 -25.6,0 c 0.1,2.3 0.9,4.1 2.5,5.5 1.6,1.3 3.8,2 6.5,2 2.5,0 4.8,-0.2 6.9,-0.7 2.1,-0.5 4.4,-1.3 6.9,-2.4 l 0,10.3 c -2.2,1.1 -4.6,1.9 -7,2.4 -2.4,0.5 -5.1,0.4 -8.5,0.4 z m -0.8,-33.2 c -1.7,0 -3.1,0.5 -4.2,1.6 -1.1,1.1 -1.8,2.7 -2,5 l 12.3,0 c 0,-2 -0.6,-3.6 -1.7,-4.8 -1.1,-1.2 -2.6,-1.8 -4.4,-1.8 z"
       id="path25"
       inkscape:connector-curvature="0"
       style="fill:#ffffff" /><path
       class="st0"
       d="m -295.7,3814.7 -15.8,-41.5 14.9,0 7,24.5 c 0,0.1 0.1,0.3 0.1,0.6 0,0.3 0.1,0.6 0.2,1 0.1,0.4 0.1,0.8 0.2,1.3 0.1,0.5 0.1,0.9 0.1,1.3 l 0.3,0 c 0,-1.3 0.2,-2.6 0.7,-4.1 l 7.4,-24.6 14.9,0 -15.8,41.5 -14.2,0 z"
       id="path27"
       inkscape:connector-curvature="0"
       style="fill:#ffffff" /><path
       class="st0"
       d="m -248.7,3814.7 -14.3,0 0,-53.5 31.6,0 0,11.6 -17.4,0 0,10.2 16,0 0,11.6 -16,0 0,20.1 z"
       id="path29"
       inkscape:connector-curvature="0"
       style="fill:#ffffff" /><path
       class="st0"
       d="m -206.3,3815.4 c -6.9,0 -12.3,-1.8 -16.1,-5.5 -3.8,-3.7 -5.7,-8.9 -5.7,-15.7 0,-7 1.8,-12.4 5.3,-16.1 3.5,-3.7 8.6,-5.6 15.2,-5.6 6.2,0 11.1,1.6 14.5,4.9 3.4,3.3 5.1,8 5.1,14.1 l 0,6.4 -25.6,0 c 0.1,2.3 0.9,4.1 2.5,5.5 1.6,1.3 3.8,2 6.5,2 2.5,0 4.8,-0.2 6.9,-0.7 2.1,-0.5 4.4,-1.3 6.9,-2.4 l 0,10.3 c -2.2,1.1 -4.6,1.9 -7,2.4 -2.4,0.2 -5.2,0.4 -8.5,0.4 z m -0.9,-33.2 c -1.7,0 -3.1,0.5 -4.2,1.6 -1.1,1.1 -1.8,2.7 -2,5 l 12.3,0 c 0,-2 -0.6,-3.6 -1.7,-4.8 -1.1,-1.2 -2.6,-1.8 -4.4,-1.8 z"
       id="path31"
       inkscape:connector-curvature="0"
       style="fill:#ffffff" /><path
       class="st0"
       d="m -151,3802 c 0,4.4 -1.5,7.8 -4.5,10.1 -3,2.3 -7.4,3.4 -13,3.4 -3.1,0 -5.8,-0.2 -8,-0.5 -2.2,-0.3 -4.6,-0.9 -7,-1.8 l 0,-11.5 c 2.2,1 4.7,1.8 7.3,2.4 2.6,0.6 5,1 7.1,1 3.1,0 4.7,-0.7 4.7,-2.1 0,-0.7 -0.4,-1.4 -1.3,-2 -0.9,-0.6 -3.4,-1.7 -7.6,-3.4 -3.8,-1.6 -6.5,-3.3 -8,-5.3 -1.5,-2 -2.3,-4.5 -2.3,-7.6 0,-3.9 1.5,-6.9 4.5,-9 3,-2.1 7.2,-3.2 12.6,-3.2 2.7,0 5.3,0.3 7.7,0.9 2.4,0.6 4.9,1.5 7.5,2.6 l -3.9,9.2 c -1.9,-0.9 -3.9,-1.6 -6,-2.2 -2.1,-0.6 -3.9,-0.9 -5.2,-0.9 -2.3,0 -3.5,0.6 -3.5,1.7 0,0.7 0.4,1.3 1.2,1.8 0.8,0.5 3.2,1.5 7.1,3.1 2.9,1.2 5.1,2.4 6.5,3.5 1.4,1.1 2.5,2.5 3.1,4 0.7,1.7 1,3.5 1,5.8 z"
       id="path33"
       inkscape:connector-curvature="0"
       style="fill:#ffffff" /><path
       class="st0"
       d="m -125.7,3804.1 c 1.9,0 4.2,-0.5 6.9,-1.4 l 0,10.4 c -1.9,0.8 -3.8,1.4 -5.5,1.8 -1.7,0.4 -3.8,0.5 -6.1,0.5 -4.8,0 -8.3,-1.2 -10.4,-3.5 -2.1,-2.3 -3.2,-6 -3.2,-10.9 l 0,-17.1 -5,0 0,-5.8 6.4,-4.5 3.7,-8.7 9.4,0 0,8.3 10.2,0 0,10.7 -10.3,0 0,16.2 c 0,2.7 1.3,4 3.9,4 z"
       id="path35"
       inkscape:connector-curvature="0"
       style="fill:#ffffff" /></g><g
     transform="matrix(1.3114609,0,0,1.7196024,-617.12443,3580.2577)"
     style="font-style:normal;font-weight:normal;font-size:40px;line-height:125%;font-family:sans-serif;letter-spacing:0px;word-spacing:0px;fill:#000000;fill-opacity:1;stroke:none;stroke-width:1px;stroke-linecap:butt;stroke-linejoin:miter;stroke-opacity:1"
     id="flowRoot4151"><path
       d="m 161.89648,147.93051 24.66797,0 0,3.32032 -10.35156,0 0,25.83984 -3.96484,0 0,-25.83984 -10.35157,0 0,-3.32032 z"
       style="line-height:125%;text-align:start;writing-mode:lr-tb;text-anchor:start;fill:#ffffff"
       id="path4160" /><path
       d="m 191.91602,157.7352 q -2.89063,0 -4.57032,2.26563 -1.67968,2.24609 -1.67968,6.17187 0,3.92578 1.66015,6.19141 1.67969,2.24609 4.58985,2.24609 2.87109,0 4.55078,-2.26562 1.67968,-2.26563 1.67968,-6.17188 0,-3.88672 -1.67968,-6.15234 -1.67969,-2.28516 -4.55078,-2.28516 z m 0,-3.04687 q 4.6875,0 7.36328,3.04687 2.67578,3.04688 2.67578,8.4375 0,5.37109 -2.67578,8.4375 -2.67578,3.04688 -7.36328,3.04688 -4.70704,0 -7.38282,-3.04688 -2.65625,-3.06641 -2.65625,-8.4375 0,-5.39062 2.65625,-8.4375 2.67578,-3.04687 7.38282,-3.04687 z"
       style="line-height:125%;text-align:start;writing-mode:lr-tb;text-anchor:start;fill:#ffffff"
       id="path4162" /><path
       d="m 207.52148,168.45786 0,-13.24219 3.59375,0 0,13.10547 q 0,3.10547 1.21094,4.66797 1.21094,1.54297 3.63281,1.54297 2.91016,0 4.58985,-1.85547 1.69922,-1.85547 1.69922,-5.0586 l 0,-12.40234 3.59375,0 0,21.875 -3.59375,0 0,-3.35938 q -1.3086,1.99219 -3.04688,2.96875 -1.71875,0.95704 -4.0039,0.95704 -3.76954,0 -5.72266,-2.34375 -1.95313,-2.34375 -1.95313,-6.85547 z m 9.04297,-13.76953 0,0 z"
       style="line-height:125%;text-align:start;writing-mode:lr-tb;text-anchor:start;fill:#ffffff"
       id="path4164" /><path
       d="m 233.2832,146.70004 3.59375,0 0,30.39063 -3.59375,0 0,-30.39063 z"
       style="line-height:125%;text-align:start;writing-mode:lr-tb;text-anchor:start;fill:#ffffff"
       id="path4166" /><path
       d="m 252.85352,157.7352 q -2.89063,0 -4.57032,2.26563 -1.67968,2.24609 -1.67968,6.17187 0,3.92578 1.66015,6.19141 1.67969,2.24609 4.58985,2.24609 2.87109,0 4.55078,-2.26562 1.67968,-2.26563 1.67968,-6.17188 0,-3.88672 -1.67968,-6.15234 -1.67969,-2.28516 -4.55078,-2.28516 z m 0,-3.04687 q 4.6875,0 7.36328,3.04687 2.67578,3.04688 2.67578,8.4375 0,5.37109 -2.67578,8.4375 -2.67578,3.04688 -7.36328,3.04688 -4.70704,0 -7.38282,-3.04688 -2.65625,-3.06641 -2.65625,-8.4375 0,-5.39062 2.65625,-8.4375 2.67578,-3.04687 7.38282,-3.04687 z"
       style="line-height:125%;text-align:start;writing-mode:lr-tb;text-anchor:start;fill:#ffffff"
       id="path4168" /><path
       d="m 268.45898,168.45786 0,-13.24219 3.59375,0 0,13.10547 q 0,3.10547 1.21094,4.66797 1.21094,1.54297 3.63281,1.54297 2.91016,0 4.58985,-1.85547 1.69922,-1.85547 1.69922,-5.0586 l 0,-12.40234 3.59375,0 0,21.875 -3.59375,0 0,-3.35938 q -1.3086,1.99219 -3.04688,2.96875 -1.71875,0.95704 -4.0039,0.95704 -3.76954,0 -5.72266,-2.34375 -1.95313,-2.34375 -1.95313,-6.85547 z m 9.04297,-13.76953 0,0 z"
       style="line-height:125%;text-align:start;writing-mode:lr-tb;text-anchor:start;fill:#ffffff"
       id="path4170" /><path
       d="m 308.16602,155.8602 0,3.39844 q -1.52344,-0.78125 -3.16407,-1.17188 -1.64062,-0.39062 -3.39843,-0.39062 -2.67579,0 -4.02344,0.82031 -1.32813,0.82031 -1.32813,2.46094 0,1.25 0.95703,1.97265 0.95704,0.70313 3.84766,1.34766 l 1.23047,0.27344 q 3.82812,0.82031 5.42969,2.32422 1.62109,1.48437 1.62109,4.16015 0,3.04688 -2.42187,4.82422 -2.40235,1.77735 -6.6211,1.77735 -1.75781,0 -3.67187,-0.35157 -1.89453,-0.33203 -4.00391,-1.01562 l 0,-3.71094 q 1.99219,1.03516 3.92578,1.5625 1.9336,0.50781 3.82813,0.50781 2.53906,0 3.90625,-0.85937 1.36718,-0.87891 1.36718,-2.46094 0,-1.46484 -0.99609,-2.24609 -0.97656,-0.78125 -4.31641,-1.50391 l -1.25,-0.29297 q -3.33984,-0.70312 -4.82421,-2.14844 -1.48438,-1.46484 -1.48438,-4.0039 0,-3.08594 2.1875,-4.76563 2.1875,-1.67968 6.21094,-1.67968 1.99219,0 3.75,0.29296 1.75781,0.29297 3.24219,0.87891 z"
       style="line-height:125%;text-align:start;writing-mode:lr-tb;text-anchor:start;fill:#ffffff"
       id="path4172" /><path
       d="m 333.79102,165.25473 0,1.75781 -16.52344,0 q 0.23437,3.71094 2.22656,5.66407 2.01172,1.93359 5.58594,1.93359 2.07031,0 4.0039,-0.50781 1.95313,-0.50781 3.86719,-1.52344 l 0,3.39844 q -1.93359,0.82031 -3.96484,1.25 -2.03125,0.42969 -4.1211,0.42969 -5.23437,0 -8.30078,-3.04688 -3.04687,-3.04687 -3.04687,-8.24219 0,-5.37109 2.89062,-8.51562 2.91016,-3.16406 7.83203,-3.16406 4.41407,0 6.97266,2.85156 2.57813,2.83203 2.57813,7.71484 z m -3.59375,-1.05469 q -0.0391,-2.94921 -1.66016,-4.70703 -1.60156,-1.75781 -4.25781,-1.75781 -3.00782,0 -4.82422,1.69922 -1.79688,1.69922 -2.07031,4.78516 l 12.8125,-0.0195 z"
       style="line-height:125%;text-align:start;writing-mode:lr-tb;text-anchor:start;fill:#ffffff"
       id="path4174" /><path
       d="m 356.33008,173.77036 13.76953,0 0,3.32031 -18.51563,0 0,-3.32031 q 2.2461,-2.32422 6.11329,-6.23047 3.88671,-3.92578 4.88281,-5.0586 1.89453,-2.1289 2.63672,-3.59375 0.76172,-1.48437 0.76172,-2.91015 0,-2.32422 -1.64063,-3.78906 -1.62109,-1.46485 -4.23828,-1.46485 -1.85547,0 -3.92578,0.64453 -2.05078,0.64453 -4.39453,1.95313 l 0,-3.98438 q 2.38281,-0.95703 4.45312,-1.44531 2.07031,-0.48828 3.78906,-0.48828 4.53125,0 7.22657,2.26562 2.69531,2.26563 2.69531,6.05469 0,1.79688 -0.68359,3.41797 -0.66407,1.60156 -2.44141,3.78906 -0.48828,0.56641 -3.10547,3.28125 -2.61719,2.69532 -7.38281,7.5586 z"
       style="line-height:125%;text-align:start;writing-mode:lr-tb;text-anchor:start;fill:#ffffff"
       id="path4176" /><path
       d="m 386.83789,150.52817 q -3.04687,0 -4.58984,3.00781 -1.52344,2.98828 -1.52344,9.00391 0,5.99609 1.52344,9.0039 1.54297,2.98829 4.58984,2.98829 3.06641,0 4.58984,-2.98829 1.54297,-3.00781 1.54297,-9.0039 0,-6.01563 -1.54297,-9.00391 -1.52343,-3.00781 -4.58984,-3.00781 z m 0,-3.125 q 4.90234,0 7.48047,3.88672 2.59766,3.86719 2.59766,11.25 0,7.36328 -2.59766,11.25 -2.57813,3.86719 -7.48047,3.86719 -4.90234,0 -7.5,-3.86719 -2.57812,-3.88672 -2.57812,-11.25 0,-7.38281 2.57812,-11.25 2.59766,-3.88672 7.5,-3.88672 z"
       style="line-height:125%;text-align:start;writing-mode:lr-tb;text-anchor:start;fill:#ffffff"
       id="path4178" /><path
       d="m 404.55273,173.77036 6.44532,0 0,-22.2461 -7.01172,1.40625 0,-3.59375 6.97265,-1.40625 3.94532,0 0,25.83985 6.44531,0 0,3.32031 -16.79688,0 0,-3.32031 z"
       style="line-height:125%;text-align:start;writing-mode:lr-tb;text-anchor:start;fill:#ffffff"
       id="path4180" /><path
       d="m 438.26367,160.93833 q -2.65625,0 -4.21875,1.8164 -1.54297,1.81641 -1.54297,4.98047 0,3.14453 1.54297,4.98047 1.5625,1.81641 4.21875,1.81641 2.65625,0 4.19922,-1.81641 1.5625,-1.83594 1.5625,-4.98047 0,-3.16406 -1.5625,-4.98047 -1.54297,-1.8164 -4.19922,-1.8164 z m 7.83203,-12.36329 0,3.59375 q -1.48437,-0.70312 -3.00781,-1.07421 -1.50391,-0.3711 -2.98828,-0.3711 -3.90625,0 -5.97656,2.63672 -2.05078,2.63672 -2.34375,7.96875 1.15234,-1.69922 2.89062,-2.59766 1.73828,-0.91796 3.82813,-0.91796 4.39453,0 6.93359,2.67578 2.55859,2.65625 2.55859,7.24609 0,4.49219 -2.65625,7.20703 -2.65625,2.71485 -7.07031,2.71485 -5.05859,0 -7.73437,-3.86719 -2.67578,-3.88672 -2.67578,-11.25 0,-6.91406 3.28125,-11.01563 3.28125,-4.12109 8.80859,-4.12109 1.48437,0 2.98828,0.29297 1.52344,0.29297 3.16406,0.8789 z"
       style="line-height:125%;text-align:start;writing-mode:lr-tb;text-anchor:start;fill:#ffffff"
       id="path4182" /></g></svg>