<?xml version="1.0" encoding="UTF-8"?>
<!DOCTYPE svg PUBLIC "-//W3C//DTD SVG 1.1//EN" "http://www.w3.org/Graphics/SVG/1.1/DTD/svg11.dtd">
<!-- Creator: CorelDRAW X6 -->
<svg xmlns="http://www.w3.org/2000/svg" xml:space="preserve" width="7.93667in" height="2.74334in" version="1.1" style="shape-rendering:geometricPrecision; text-rendering:geometricPrecision; image-rendering:optimizeQuality; fill-rule:evenodd; clip-rule:evenodd"
viewBox="0 0 7937 2743"
 xmlns:xlink="http://www.w3.org/1999/xlink">
 <defs>
  <style type="text/css">
   <![CDATA[
    .fil0 {fill:black;fill-rule:nonzero}
    .fil2 {fill:#454545;fill-rule:nonzero}
    .fil1 {fill:#EE413C;fill-rule:nonzero}
   ]]>
  </style>
   <clipPath id="id0" style="clip-rule:nonzero">
    <path d="M310 1323l0 269 -8 0 0 -269 8 0zm42 210l0 0c3,11 7,21 13,29 6,8 14,15 23,20 10,5 21,7 35,7 20,0 37,-5 51,-16 13,-11 22,-27 25,-48l8 0c-3,23 -12,40 -27,53 -15,12 -34,19 -56,19 -15,0 -28,-2 -39,-7 -11,-5 -19,-12 -26,-21 -7,-9 -12,-20 -15,-32 -3,-12 -5,-26 -5,-40 0,-16 2,-30 7,-43 5,-13 11,-23 19,-32 8,-9 17,-15 27,-20 10,-5 21,-7 32,-7 15,0 28,3 39,9 11,6 20,13 27,23 7,10 12,20 15,33 3,12 4,25 4,38l-162 0c0,13 2,25 5,36zm145 -78l0 0c-3,-11 -8,-20 -15,-28 -6,-8 -14,-14 -24,-19 -10,-5 -21,-7 -33,-7 -11,0 -20,2 -30,6 -9,4 -17,10 -24,18 -7,8 -13,17 -17,28 -4,11 -7,23 -8,37l155 0c0,-12 -2,-23 -5,-34zm154 -57l0 0 0 48 1 0c2,-8 5,-14 8,-21 4,-6 8,-12 14,-17 6,-5 12,-8 18,-11 7,-3 14,-4 21,-4 15,-1 28,3 38,12 10,8 17,19 20,34l1 0c4,-14 11,-25 22,-33 11,-8 24,-12 39,-12 12,0 22,2 29,5 8,4 14,8 19,15 5,6 8,14 10,22 2,9 3,18 3,29l0 127 -8 0 0 -127c0,-10 -1,-18 -2,-26 -2,-8 -5,-14 -9,-20 -4,-6 -10,-10 -17,-13 -7,-3 -16,-5 -26,-5 -9,0 -18,2 -25,5 -8,4 -14,9 -19,15 -5,6 -9,14 -12,22 -3,8 -4,17 -4,26l0 123 -8 0 0 -124c0,-9 -1,-18 -2,-26 -1,-8 -4,-15 -8,-21 -4,-6 -9,-11 -16,-14 -7,-4 -16,-5 -26,-5 -10,0 -18,2 -26,7 -8,4 -14,10 -20,18 -5,7 -10,16 -12,26 -3,10 -4,20 -4,31l0 110 -8 0 0 -194 8 0zm290 35l0 0c3,-8 8,-15 14,-21 6,-6 14,-10 23,-14 9,-3 19,-5 31,-5 9,0 17,1 24,3 8,2 14,5 20,9 6,4 10,10 14,17 4,7 5,16 6,26l0 123c0,4 1,7 2,8 2,2 4,3 6,4 3,1 5,1 8,1 3,0 6,0 8,-1l0 8 -11 0c-6,0 -10,-1 -15,-4 -4,-3 -6,-8 -6,-15l0 -25 -1 0c-2,6 -5,12 -10,18 -4,6 -10,11 -17,15 -7,5 -14,8 -23,11 -9,3 -18,4 -28,4 -20,0 -35,-4 -47,-13 -12,-9 -18,-22 -18,-39 0,-12 2,-22 6,-29 4,-7 9,-13 15,-17 6,-4 13,-7 21,-9 8,-2 16,-3 24,-3 13,-1 25,-1 34,-2 10,-1 17,-2 24,-4 6,-2 11,-5 14,-9 3,-4 4,-9 4,-17 0,-6 -1,-12 -2,-18 -1,-6 -3,-12 -7,-17 -4,-5 -10,-10 -17,-13 -8,-3 -18,-5 -31,-5 -20,0 -36,5 -48,15 -11,10 -18,24 -19,42l-8 0c1,-9 2,-18 6,-25zm124 45l0 0c-3,4 -6,6 -12,8 -5,2 -11,3 -18,4 -7,1 -14,2 -22,2 -8,0 -16,1 -23,1 -8,1 -15,1 -22,3 -7,1 -14,4 -19,8 -6,4 -10,9 -13,15 -3,6 -5,15 -5,25 0,6 1,11 3,16 2,5 5,10 10,14 5,4 10,8 18,10 7,3 16,4 27,4 13,0 24,-2 34,-6 10,-4 18,-10 25,-17 7,-7 12,-15 15,-24 3,-9 5,-18 5,-28l0 -36 -1 0zm198 49l0 0c-2,9 -6,16 -11,23 -5,7 -11,13 -18,17 -7,5 -14,8 -23,11 -8,2 -16,4 -25,4 -14,0 -25,-3 -35,-8 -10,-5 -18,-12 -25,-20 -7,-8 -12,-18 -15,-30 -3,-11 -5,-23 -5,-35 0,-13 2,-25 5,-37 4,-11 9,-22 16,-30 7,-9 16,-16 26,-21 10,-5 22,-8 36,-8 9,0 18,1 26,4 8,3 15,7 22,12 6,5 12,11 16,18 4,7 8,14 10,22l1 0 0 -52 8 0 0 187c0,27 -7,46 -21,59 -14,12 -34,19 -60,19 -10,0 -19,-1 -28,-3 -9,-2 -17,-6 -23,-11 -7,-5 -12,-11 -16,-19 -4,-8 -6,-17 -6,-28l8 0c0,10 2,18 6,25 4,7 8,12 15,17 6,4 13,7 21,9 8,2 16,3 25,3 24,0 42,-6 54,-17 13,-11 19,-29 19,-53l0 -58 -1 0zm-4 -71l0 0c-3,-11 -8,-20 -14,-28 -6,-8 -14,-15 -23,-20 -9,-5 -20,-7 -32,-7 -13,0 -24,2 -33,7 -9,5 -17,11 -24,19 -6,8 -11,17 -14,28 -3,11 -5,22 -5,34 0,12 2,23 5,34 3,10 8,19 14,27 6,8 14,14 23,18 9,4 19,7 31,7 13,0 24,-2 33,-7 10,-5 18,-11 24,-18 6,-8 11,-17 15,-27 3,-10 5,-21 5,-33 0,-11 -2,-22 -5,-32zm58 -24l0 0c3,-8 8,-15 14,-21 6,-6 14,-10 23,-14 9,-3 19,-5 31,-5 9,0 17,1 24,3 8,2 14,5 20,9 6,4 10,10 14,17 4,7 5,16 6,26l0 123c0,4 1,7 2,8 2,2 4,3 6,4 3,1 5,1 8,1 3,0 6,0 8,-1l0 8 -11 0c-6,0 -10,-1 -15,-4 -4,-3 -6,-8 -6,-15l0 -25 -1 0c-2,6 -5,12 -10,18 -4,6 -10,11 -17,15 -7,5 -14,8 -23,11 -9,3 -18,4 -28,4 -20,0 -35,-4 -47,-13 -12,-9 -18,-22 -18,-39 0,-12 2,-22 6,-29 4,-7 9,-13 15,-17 6,-4 13,-7 21,-9 8,-2 16,-3 24,-3 13,-1 25,-1 34,-2 10,-1 17,-2 24,-4 6,-2 11,-5 14,-9 3,-4 4,-9 4,-17 0,-6 -1,-12 -2,-18 -1,-6 -3,-12 -7,-17 -4,-5 -10,-10 -17,-13 -8,-3 -18,-5 -31,-5 -20,0 -36,5 -48,15 -11,10 -18,24 -19,42l-8 0c1,-9 2,-18 6,-25zm124 45l0 0c-3,4 -6,6 -12,8 -5,2 -11,3 -18,4 -7,1 -14,2 -22,2 -8,0 -16,1 -23,1 -8,1 -15,1 -22,3 -7,1 -14,4 -19,8 -6,4 -10,9 -13,15 -3,6 -5,15 -5,25 0,6 1,11 3,16 2,5 5,10 10,14 5,4 10,8 18,10 7,3 16,4 27,4 13,0 24,-2 34,-6 10,-4 18,-10 25,-17 7,-7 12,-15 15,-24 3,-9 5,-18 5,-28l0 -36 -1 0zm182 114l0 0 -150 0 0 -9 136 -177 -126 0 0 -8 133 0 0 9 -136 177 142 0 0 8zm22 -231l0 0 0 -38 8 0 0 38 -8 0zm0 231l0 0 0 -194 8 0 0 194 -8 0zm56 -194l0 0 0 48 1 0c2,-8 5,-14 8,-21 4,-6 9,-12 15,-17 6,-5 13,-8 21,-11 8,-3 16,-4 26,-4 10,0 19,2 28,5 8,3 16,7 22,13 6,6 11,13 14,22 3,9 5,19 5,30l0 129 -8 0 0 -127c0,-11 -2,-21 -5,-29 -3,-8 -8,-14 -13,-20 -6,-5 -12,-9 -20,-11 -7,-2 -15,-4 -24,-4 -12,0 -22,2 -31,7 -9,4 -16,10 -22,18 -6,7 -10,16 -13,26 -3,10 -5,20 -5,31l0 110 -8 0 0 -194 8 0zm181 135l0 0c3,11 7,21 13,29 6,8 14,15 23,20 10,5 21,7 35,7 20,0 37,-5 51,-16 13,-11 22,-27 25,-48l8 0c-3,23 -12,40 -27,53 -15,12 -34,19 -56,19 -15,0 -28,-2 -39,-7 -11,-5 -19,-12 -26,-21 -7,-9 -12,-20 -15,-32 -3,-12 -5,-26 -5,-40 0,-16 2,-30 7,-43 5,-13 11,-23 19,-32 8,-9 17,-15 27,-20 10,-5 21,-7 32,-7 15,0 28,3 39,9 11,6 20,13 27,23 7,10 12,20 15,33 3,12 4,25 4,38l-162 0c0,13 2,25 5,36zm145 -78l0 0c-3,-11 -8,-20 -15,-28 -6,-8 -14,-14 -24,-19 -10,-5 -21,-7 -33,-7 -11,0 -20,2 -30,6 -9,4 -17,10 -24,18 -7,8 -13,17 -17,28 -4,11 -7,23 -8,37l155 0c0,-12 -2,-23 -5,-34zm305 -133l0 0 0 269 -8 0 0 -54 -1 0c-5,17 -14,31 -28,42 -13,11 -30,16 -50,16 -13,0 -24,-3 -34,-8 -10,-5 -19,-12 -26,-21 -7,-9 -13,-20 -16,-32 -4,-12 -6,-26 -6,-40 0,-14 2,-27 5,-39 4,-12 9,-23 16,-32 7,-9 16,-17 26,-22 10,-6 22,-8 35,-8 21,0 38,5 51,16 13,11 22,25 27,43l1 0 0 -130 8 0zm-29 103l0 0c-14,-16 -33,-24 -57,-24 -13,0 -24,3 -34,8 -10,6 -17,13 -23,22 -6,9 -11,19 -13,30 -3,11 -4,22 -4,34 0,12 2,24 5,35 3,11 8,21 14,30 6,9 14,16 23,21 9,5 20,8 33,8 13,0 24,-3 33,-8 10,-5 18,-12 25,-20 7,-9 12,-18 15,-30 4,-11 5,-23 5,-36 0,-30 -7,-54 -21,-70zm212 167l0 0 0 -48 -1 0c-4,15 -11,28 -23,37 -12,10 -27,15 -47,15 -10,0 -19,-1 -28,-4 -8,-3 -16,-7 -22,-13 -6,-6 -11,-13 -14,-22 -3,-9 -5,-19 -5,-30l0 -129 8 0 0 127c0,11 2,21 5,29 3,8 8,14 13,20 6,5 12,9 20,11 7,2 15,4 24,4 12,0 22,-2 31,-7 9,-4 16,-10 22,-18 6,-7 10,-16 13,-26 3,-10 5,-20 5,-31l0 -110 8 0 0 194 -8 0zm304 0l0 0 0 -37 -1 0c-3,6 -6,12 -11,17 -5,5 -10,10 -17,13 -6,4 -13,6 -20,8 -7,2 -14,3 -21,3 -15,0 -28,-3 -39,-8 -11,-5 -20,-13 -27,-22 -7,-9 -13,-20 -16,-33 -4,-12 -5,-26 -5,-39 0,-14 2,-27 5,-39 4,-12 9,-23 16,-33 7,-9 16,-17 27,-22 11,-6 24,-8 39,-8 7,0 14,1 21,3 7,2 13,4 19,8 6,4 11,8 16,13 5,5 8,11 11,18l1 0 0 -112 24 0 0 269 -22 0zm-130 -67l0 0c2,10 6,19 11,27 5,8 12,14 20,19 8,5 18,7 29,7 13,0 23,-2 32,-7 9,-5 16,-11 21,-19 5,-8 9,-17 12,-27 2,-10 4,-20 4,-30 0,-10 -1,-20 -4,-30 -2,-10 -6,-19 -12,-27 -5,-8 -12,-14 -21,-19 -9,-5 -19,-7 -32,-7 -11,0 -21,2 -29,7 -8,5 -15,11 -20,19 -5,8 -9,17 -11,27 -2,10 -4,20 -4,30 0,10 1,20 4,30zm214 3l0 0c2,9 6,17 12,25 5,7 12,13 20,18 8,5 18,7 29,7 17,0 31,-5 41,-14 10,-9 17,-21 20,-36l24 0c-5,22 -14,39 -28,51 -13,12 -32,18 -57,18 -15,0 -29,-3 -40,-8 -11,-5 -20,-13 -27,-22 -7,-9 -12,-20 -16,-33 -3,-12 -5,-26 -5,-39 0,-13 2,-25 5,-38 3,-12 9,-23 16,-33 7,-10 16,-17 27,-23 11,-6 24,-9 40,-9 16,0 29,3 40,9 11,6 20,15 27,25 7,10 12,22 15,35 3,13 4,27 4,40l-150 0c0,9 1,17 4,27zm118 -73l0 0c-3,-8 -7,-16 -12,-22 -5,-6 -12,-12 -19,-15 -8,-4 -16,-6 -26,-6 -10,0 -18,2 -26,6 -8,4 -14,9 -19,15 -5,6 -9,14 -13,22 -3,8 -5,17 -6,26l126 0c0,-9 -2,-18 -5,-26zm-82 -85l0 0 40 -53 29 0 -50 53 -19 0zm147 27l0 0 61 171 1 0 60 -171 25 0 -73 195 -25 0 -75 -195 26 0zm187 130l0 0c2,9 6,17 12,25 5,7 12,13 20,18 8,5 18,7 29,7 17,0 31,-5 41,-14 10,-9 17,-21 20,-36l24 0c-5,22 -14,39 -28,51 -13,12 -32,18 -57,18 -15,0 -29,-3 -40,-8 -11,-5 -20,-13 -27,-22 -7,-9 -12,-20 -16,-33 -3,-12 -5,-26 -5,-39 0,-13 2,-25 5,-38 3,-12 9,-23 16,-33 7,-10 16,-17 27,-23 11,-6 24,-9 40,-9 16,0 29,3 40,9 11,6 20,15 27,25 7,10 12,22 15,35 3,13 4,27 4,40l-150 0c0,9 1,17 4,27zm118 -73l0 0c-3,-8 -7,-16 -12,-22 -5,-6 -12,-12 -19,-15 -8,-4 -16,-6 -26,-6 -10,0 -18,2 -26,6 -8,4 -14,9 -19,15 -5,6 -9,14 -13,22 -3,8 -5,17 -6,26l126 0c0,-9 -2,-18 -5,-26zm84 -132l0 0 0 269 -24 0 0 -269 24 0zm167 77l0 0c11,6 21,13 29,22 8,9 14,20 18,33 4,12 6,26 6,40 0,14 -2,27 -6,40 -4,12 -10,23 -18,33 -8,9 -17,17 -29,22 -11,5 -25,8 -39,8 -15,0 -28,-3 -39,-8 -11,-5 -21,-13 -29,-22 -8,-9 -14,-20 -18,-33 -4,-12 -6,-26 -6,-40 0,-14 2,-27 6,-40 4,-12 10,-23 18,-33 8,-9 17,-17 29,-22 11,-6 25,-8 39,-8 15,0 28,3 39,8zm-69 19l0 0c-9,5 -16,11 -21,19 -6,8 -10,17 -13,27 -3,10 -4,20 -4,30 0,10 1,20 4,30 3,10 7,19 13,27 6,8 13,14 21,19 9,5 18,7 30,7 11,0 21,-2 30,-7 9,-5 16,-11 21,-19 6,-8 10,-17 13,-27 3,-10 4,-20 4,-30 0,-10 -1,-20 -4,-30 -3,-10 -7,-19 -13,-27 -6,-8 -13,-14 -21,-19 -9,-5 -18,-7 -30,-7 -11,0 -21,2 -30,7zm178 -22l0 0 0 37 1 0c6,-14 15,-24 27,-31 12,-7 27,-11 42,-11 15,0 28,3 39,8 11,6 20,13 27,22 7,9 13,20 16,33 4,12 5,26 5,39 0,14 -2,27 -5,39 -4,12 -9,23 -16,33 -7,9 -16,17 -27,22 -11,5 -24,8 -39,8 -7,0 -14,-1 -21,-3 -7,-2 -14,-4 -20,-8 -6,-4 -11,-8 -16,-13 -5,-5 -8,-11 -11,-18l-1 0 0 109 -24 0 0 -266 22 0zm130 67l0 0c-2,-10 -6,-19 -11,-27 -5,-8 -12,-14 -20,-19 -8,-5 -18,-7 -29,-7 -13,0 -24,2 -33,7 -9,5 -16,11 -21,18 -5,8 -9,16 -11,26 -2,10 -3,21 -3,32 0,10 1,20 4,30 2,10 6,19 12,27 5,8 12,14 21,19 9,5 19,7 32,7 11,0 21,-2 29,-7 8,-5 15,-11 20,-19 5,-8 9,-17 11,-27 2,-10 4,-20 4,-30 0,-10 -1,-20 -4,-30zm85 -67l0 0 0 37 1 0c6,-14 15,-24 27,-31 12,-7 27,-11 42,-11 15,0 28,3 39,8 11,6 20,13 27,22 7,9 13,20 16,33 4,12 5,26 5,39 0,14 -2,27 -5,39 -4,12 -9,23 -16,33 -7,9 -16,17 -27,22 -11,5 -24,8 -39,8 -7,0 -14,-1 -21,-3 -7,-2 -14,-4 -20,-8 -6,-4 -11,-8 -16,-13 -5,-5 -8,-11 -11,-18l-1 0 0 109 -24 0 0 -266 22 0zm130 67l0 0c-2,-10 -6,-19 -11,-27 -5,-8 -12,-14 -20,-19 -8,-5 -18,-7 -29,-7 -13,0 -24,2 -33,7 -9,5 -16,11 -21,18 -5,8 -9,16 -11,26 -2,10 -3,21 -3,32 0,10 1,20 4,30 2,10 6,19 12,27 5,8 12,14 21,19 9,5 19,7 32,7 11,0 21,-2 29,-7 8,-5 15,-11 20,-19 5,-8 9,-17 11,-27 2,-10 4,-20 4,-30 0,-10 -1,-20 -4,-30zm81 63l0 0c2,9 6,17 12,25 5,7 12,13 20,18 8,5 18,7 29,7 17,0 31,-5 41,-14 10,-9 17,-21 20,-36l24 0c-5,22 -14,39 -28,51 -13,12 -32,18 -57,18 -15,0 -29,-3 -40,-8 -11,-5 -20,-13 -27,-22 -7,-9 -12,-20 -16,-33 -3,-12 -5,-26 -5,-39 0,-13 2,-25 5,-38 3,-12 9,-23 16,-33 7,-10 16,-17 27,-23 11,-6 24,-9 40,-9 16,0 29,3 40,9 11,6 20,15 27,25 7,10 12,22 15,35 3,13 4,27 4,40l-150 0c0,9 1,17 4,27zm118 -73l0 0c-3,-8 -7,-16 -12,-22 -5,-6 -12,-12 -19,-15 -8,-4 -16,-6 -26,-6 -10,0 -18,2 -26,6 -8,4 -14,9 -19,15 -5,6 -9,14 -13,22 -3,8 -5,17 -6,26l126 0c0,-9 -2,-18 -5,-26zm195 137l0 0 0 -35 -1 0c-6,13 -15,23 -27,30 -12,7 -25,10 -40,10 -12,0 -23,-2 -31,-5 -9,-3 -16,-8 -21,-15 -5,-6 -9,-14 -12,-23 -3,-9 -4,-19 -4,-31l0 -126 24 0 0 127c1,18 5,31 12,40 8,9 21,14 40,14 10,0 19,-2 26,-7 7,-4 13,-10 18,-18 5,-7 8,-16 11,-25 2,-9 3,-19 3,-29l0 -102 24 0 0 195 -22 0zm88 -195l0 0 0 46 1 0c6,-16 15,-28 28,-37 13,-9 28,-12 45,-12l0 24c-11,-1 -21,1 -29,4 -9,3 -16,8 -23,15 -6,6 -11,14 -15,22 -4,9 -5,18 -5,28l0 104 -24 0 0 -195 22 0z"/>
   </clipPath>
 </defs>
 <g id="Calque_x0020_1">
  <metadata id="CorelCorpID_0Corel-Layer"/>
  <g id="_334819552">
   <polygon class="fil0" points="4841,1146 4596,523 4496,523 4496,1234 4564,1234 4564,619 4566,619 4810,1234 4873,1234 5116,619 5118,619 5118,1234 5186,1234 5186,523 5086,523 "/>
   <path class="fil1" d="M1559 1152c-2,-16 -3,-32 -3,-47 -1,-15 -1,-29 -2,-40 -1,-18 -4,-36 -7,-54 -4,-18 -9,-34 -17,-49 -8,-15 -18,-28 -31,-39 -13,-11 -29,-19 -48,-24l0 -2c40,-16 68,-39 86,-70 18,-31 26,-67 26,-109 0,-27 -5,-53 -14,-76 -10,-24 -24,-44 -42,-62 -18,-18 -40,-32 -66,-42 -26,-10 -54,-15 -86,-15l-383 0 0 711 156 0 0 -278 156 0c39,0 67,9 85,26 17,17 29,44 34,82 4,29 7,58 9,90 2,31 7,58 16,81l156 0c-7,-10 -13,-22 -16,-36 -4,-14 -6,-29 -8,-45zm-180 -331l0 0c-18,16 -45,24 -81,24l-171 0 0 -200 171 0c36,0 63,8 81,23 18,16 27,41 27,75 0,36 -9,62 -27,78z"/>
   <polygon class="fil0" points="7329,1128 7329,1234 7413,1234 7413,1128 "/>
   <path class="fil1" d="M814 594c-20,-21 -45,-38 -76,-51 -31,-13 -69,-19 -113,-19l-320 0 0 711 156 0 0 -255 164 0c44,0 82,-6 113,-19 31,-13 57,-30 76,-51 20,-21 34,-46 43,-73 9,-28 13,-56 13,-84 0,-29 -4,-57 -13,-85 -9,-27 -23,-51 -43,-73zm-106 212l0 0c-8,14 -18,25 -30,32 -13,8 -27,13 -44,15 -17,3 -34,4 -52,4l-121 0 0 -213 121 0c18,0 35,1 52,4 17,3 31,8 44,15 13,8 23,18 30,32 8,14 11,32 11,55 0,23 -4,41 -11,55z"/>
   <polygon class="fil0" points="7390,1056 7405,735 7405,523 7337,523 7337,735 7352,1056 "/>
   <polygon class="fil0" points="7231,583 7231,523 6719,523 6719,581 7155,581 6688,1174 6688,1234 7241,1234 7241,1176 6763,1176 "/>
   <path class="fil0" d="M3739 1148c-2,-18 -3,-35 -4,-52 -1,-17 -1,-32 -2,-44 -1,-21 -4,-41 -8,-59 -4,-18 -11,-34 -21,-48 -10,-14 -22,-25 -37,-34 -15,-9 -34,-15 -58,-18l0 -2c46,-9 80,-31 103,-64 23,-33 35,-72 35,-117 0,-32 -6,-60 -17,-83 -12,-24 -27,-43 -47,-58 -20,-15 -42,-26 -69,-33 -26,-7 -54,-11 -83,-11l-325 0 0 711 68 0 0 -316 257 0c32,-1 57,4 75,16 18,12 32,28 42,47 10,20 16,42 19,67 3,25 5,50 6,75 1,7 1,16 2,26 1,10 1,20 2,30 1,10 3,20 5,30 2,10 5,18 9,24l75 0c-7,-9 -13,-21 -17,-36 -4,-16 -7,-32 -9,-50zm-154 -297l0 0c-19,6 -38,9 -59,9l-253 0 0 -280 253 0c52,0 90,13 115,38 25,25 38,60 38,104 0,22 -4,41 -12,58 -8,17 -19,31 -33,43 -14,12 -30,21 -49,27z"/>
   <polygon class="fil0" points="5673,1146 5427,523 5328,523 5328,1234 5396,1234 5396,619 5397,619 5641,1234 5705,1234 5948,619 5950,619 5950,1234 6017,1234 6017,523 5918,523 "/>
   <path class="fil0" d="M4081 523l-286 711 72 0 86 -221 323 0 87 221 73 0 -279 -711 -76 0zm-107 432l0 0 142 -364 137 364 -280 0z"/>
   <path class="fil0" d="M2770 930l242 0c1,38 -4,73 -15,105 -11,32 -27,59 -48,83 -21,23 -47,41 -78,54 -31,13 -66,19 -105,19 -47,0 -88,-9 -121,-27 -34,-18 -62,-42 -83,-71 -22,-30 -37,-63 -48,-101 -10,-37 -15,-75 -15,-114 0,-39 5,-77 15,-114 10,-37 26,-71 48,-100 22,-30 49,-53 83,-71 34,-18 74,-27 121,-27 34,0 64,5 92,16 27,11 51,25 70,42 20,17 35,36 47,57 12,21 18,42 20,62l68 0c-7,-39 -19,-73 -37,-103 -18,-29 -40,-54 -66,-74 -26,-20 -55,-35 -89,-45 -33,-10 -68,-15 -105,-15 -56,0 -105,10 -147,30 -42,20 -77,47 -105,82 -28,34 -49,74 -63,118 -14,44 -21,91 -21,140 0,49 7,96 21,140 14,44 35,84 63,117 28,34 63,61 105,81 42,20 91,30 147,30 26,0 51,-3 75,-8 24,-5 47,-14 68,-25 21,-12 41,-27 58,-45 18,-18 32,-40 44,-65l2 0 9 129 49 0 0 -361 -301 0 0 58z"/>
   <polygon class="fil0" points="6229,895 6625,895 6625,837 6229,837 6229,581 6652,581 6652,523 6161,523 6161,1234 6657,1234 6657,1176 6229,1176 "/>
   <path class="fil1" d="M2263 614c-30,-34 -66,-60 -109,-80 -43,-19 -92,-29 -147,-29 -54,0 -103,10 -147,29 -43,19 -80,46 -110,80 -30,34 -53,74 -69,119 -16,45 -24,95 -24,148 0,52 8,100 24,145 16,45 39,84 69,117 30,33 66,59 110,78 43,19 92,28 147,28 55,0 104,-9 147,-28 43,-19 80,-45 109,-78 30,-33 53,-72 69,-117 16,-45 24,-93 24,-145 0,-53 -8,-102 -24,-148 -16,-45 -39,-85 -69,-119zm-74 354l0 0c-7,28 -18,54 -33,76 -15,23 -35,41 -60,54 -25,14 -54,20 -90,20 -35,0 -65,-7 -90,-20 -25,-14 -44,-32 -60,-54 -15,-23 -26,-48 -33,-76 -7,-28 -10,-57 -10,-87 0,-31 3,-61 10,-91 7,-29 18,-55 33,-78 15,-23 35,-41 60,-55 25,-14 54,-20 90,-20 35,0 65,7 90,20 25,14 44,32 60,55 15,23 26,49 33,78 7,29 10,59 10,91 0,30 -3,59 -10,87z"/>
  </g>
  <g id="_334820128">
   <path class="fil1" d="M310 1323l0 269 -8 0 0 -269 8 0zm42 210l0 0c3,11 7,21 13,29 6,8 14,15 23,20 10,5 21,7 35,7 20,0 37,-5 51,-16 13,-11 22,-27 25,-48l8 0c-3,23 -12,40 -27,53 -15,12 -34,19 -56,19 -15,0 -28,-2 -39,-7 -11,-5 -19,-12 -26,-21 -7,-9 -12,-20 -15,-32 -3,-12 -5,-26 -5,-40 0,-16 2,-30 7,-43 5,-13 11,-23 19,-32 8,-9 17,-15 27,-20 10,-5 21,-7 32,-7 15,0 28,3 39,9 11,6 20,13 27,23 7,10 12,20 15,33 3,12 4,25 4,38l-162 0c0,13 2,25 5,36zm145 -78l0 0c-3,-11 -8,-20 -15,-28 -6,-8 -14,-14 -24,-19 -10,-5 -21,-7 -33,-7 -11,0 -20,2 -30,6 -9,4 -17,10 -24,18 -7,8 -13,17 -17,28 -4,11 -7,23 -8,37l155 0c0,-12 -2,-23 -5,-34zm154 -57l0 0 0 48 1 0c2,-8 5,-14 8,-21 4,-6 8,-12 14,-17 6,-5 12,-8 18,-11 7,-3 14,-4 21,-4 15,-1 28,3 38,12 10,8 17,19 20,34l1 0c4,-14 11,-25 22,-33 11,-8 24,-12 39,-12 12,0 22,2 29,5 8,4 14,8 19,15 5,6 8,14 10,22 2,9 3,18 3,29l0 127 -8 0 0 -127c0,-10 -1,-18 -2,-26 -2,-8 -5,-14 -9,-20 -4,-6 -10,-10 -17,-13 -7,-3 -16,-5 -26,-5 -9,0 -18,2 -25,5 -8,4 -14,9 -19,15 -5,6 -9,14 -12,22 -3,8 -4,17 -4,26l0 123 -8 0 0 -124c0,-9 -1,-18 -2,-26 -1,-8 -4,-15 -8,-21 -4,-6 -9,-11 -16,-14 -7,-4 -16,-5 -26,-5 -10,0 -18,2 -26,7 -8,4 -14,10 -20,18 -5,7 -10,16 -12,26 -3,10 -4,20 -4,31l0 110 -8 0 0 -194 8 0zm290 35l0 0c3,-8 8,-15 14,-21 6,-6 14,-10 23,-14 9,-3 19,-5 31,-5 9,0 17,1 24,3 8,2 14,5 20,9 6,4 10,10 14,17 4,7 5,16 6,26l0 123c0,4 1,7 2,8 2,2 4,3 6,4 3,1 5,1 8,1 3,0 6,0 8,-1l0 8 -11 0c-6,0 -10,-1 -15,-4 -4,-3 -6,-8 -6,-15l0 -25 -1 0c-2,6 -5,12 -10,18 -4,6 -10,11 -17,15 -7,5 -14,8 -23,11 -9,3 -18,4 -28,4 -20,0 -35,-4 -47,-13 -12,-9 -18,-22 -18,-39 0,-12 2,-22 6,-29 4,-7 9,-13 15,-17 6,-4 13,-7 21,-9 8,-2 16,-3 24,-3 13,-1 25,-1 34,-2 10,-1 17,-2 24,-4 6,-2 11,-5 14,-9 3,-4 4,-9 4,-17 0,-6 -1,-12 -2,-18 -1,-6 -3,-12 -7,-17 -4,-5 -10,-10 -17,-13 -8,-3 -18,-5 -31,-5 -20,0 -36,5 -48,15 -11,10 -18,24 -19,42l-8 0c1,-9 2,-18 6,-25zm124 45l0 0c-3,4 -6,6 -12,8 -5,2 -11,3 -18,4 -7,1 -14,2 -22,2 -8,0 -16,1 -23,1 -8,1 -15,1 -22,3 -7,1 -14,4 -19,8 -6,4 -10,9 -13,15 -3,6 -5,15 -5,25 0,6 1,11 3,16 2,5 5,10 10,14 5,4 10,8 18,10 7,3 16,4 27,4 13,0 24,-2 34,-6 10,-4 18,-10 25,-17 7,-7 12,-15 15,-24 3,-9 5,-18 5,-28l0 -36 -1 0zm198 49l0 0c-2,9 -6,16 -11,23 -5,7 -11,13 -18,17 -7,5 -14,8 -23,11 -8,2 -16,4 -25,4 -14,0 -25,-3 -35,-8 -10,-5 -18,-12 -25,-20 -7,-8 -12,-18 -15,-30 -3,-11 -5,-23 -5,-35 0,-13 2,-25 5,-37 4,-11 9,-22 16,-30 7,-9 16,-16 26,-21 10,-5 22,-8 36,-8 9,0 18,1 26,4 8,3 15,7 22,12 6,5 12,11 16,18 4,7 8,14 10,22l1 0 0 -52 8 0 0 187c0,27 -7,46 -21,59 -14,12 -34,19 -60,19 -10,0 -19,-1 -28,-3 -9,-2 -17,-6 -23,-11 -7,-5 -12,-11 -16,-19 -4,-8 -6,-17 -6,-28l8 0c0,10 2,18 6,25 4,7 8,12 15,17 6,4 13,7 21,9 8,2 16,3 25,3 24,0 42,-6 54,-17 13,-11 19,-29 19,-53l0 -58 -1 0zm-4 -71l0 0c-3,-11 -8,-20 -14,-28 -6,-8 -14,-15 -23,-20 -9,-5 -20,-7 -32,-7 -13,0 -24,2 -33,7 -9,5 -17,11 -24,19 -6,8 -11,17 -14,28 -3,11 -5,22 -5,34 0,12 2,23 5,34 3,10 8,19 14,27 6,8 14,14 23,18 9,4 19,7 31,7 13,0 24,-2 33,-7 10,-5 18,-11 24,-18 6,-8 11,-17 15,-27 3,-10 5,-21 5,-33 0,-11 -2,-22 -5,-32zm58 -24l0 0c3,-8 8,-15 14,-21 6,-6 14,-10 23,-14 9,-3 19,-5 31,-5 9,0 17,1 24,3 8,2 14,5 20,9 6,4 10,10 14,17 4,7 5,16 6,26l0 123c0,4 1,7 2,8 2,2 4,3 6,4 3,1 5,1 8,1 3,0 6,0 8,-1l0 8 -11 0c-6,0 -10,-1 -15,-4 -4,-3 -6,-8 -6,-15l0 -25 -1 0c-2,6 -5,12 -10,18 -4,6 -10,11 -17,15 -7,5 -14,8 -23,11 -9,3 -18,4 -28,4 -20,0 -35,-4 -47,-13 -12,-9 -18,-22 -18,-39 0,-12 2,-22 6,-29 4,-7 9,-13 15,-17 6,-4 13,-7 21,-9 8,-2 16,-3 24,-3 13,-1 25,-1 34,-2 10,-1 17,-2 24,-4 6,-2 11,-5 14,-9 3,-4 4,-9 4,-17 0,-6 -1,-12 -2,-18 -1,-6 -3,-12 -7,-17 -4,-5 -10,-10 -17,-13 -8,-3 -18,-5 -31,-5 -20,0 -36,5 -48,15 -11,10 -18,24 -19,42l-8 0c1,-9 2,-18 6,-25zm124 45l0 0c-3,4 -6,6 -12,8 -5,2 -11,3 -18,4 -7,1 -14,2 -22,2 -8,0 -16,1 -23,1 -8,1 -15,1 -22,3 -7,1 -14,4 -19,8 -6,4 -10,9 -13,15 -3,6 -5,15 -5,25 0,6 1,11 3,16 2,5 5,10 10,14 5,4 10,8 18,10 7,3 16,4 27,4 13,0 24,-2 34,-6 10,-4 18,-10 25,-17 7,-7 12,-15 15,-24 3,-9 5,-18 5,-28l0 -36 -1 0zm182 114l0 0 -150 0 0 -9 136 -177 -126 0 0 -8 133 0 0 9 -136 177 142 0 0 8zm22 -231l0 0 0 -38 8 0 0 38 -8 0zm0 231l0 0 0 -194 8 0 0 194 -8 0zm56 -194l0 0 0 48 1 0c2,-8 5,-14 8,-21 4,-6 9,-12 15,-17 6,-5 13,-8 21,-11 8,-3 16,-4 26,-4 10,0 19,2 28,5 8,3 16,7 22,13 6,6 11,13 14,22 3,9 5,19 5,30l0 129 -8 0 0 -127c0,-11 -2,-21 -5,-29 -3,-8 -8,-14 -13,-20 -6,-5 -12,-9 -20,-11 -7,-2 -15,-4 -24,-4 -12,0 -22,2 -31,7 -9,4 -16,10 -22,18 -6,7 -10,16 -13,26 -3,10 -5,20 -5,31l0 110 -8 0 0 -194 8 0zm181 135l0 0c3,11 7,21 13,29 6,8 14,15 23,20 10,5 21,7 35,7 20,0 37,-5 51,-16 13,-11 22,-27 25,-48l8 0c-3,23 -12,40 -27,53 -15,12 -34,19 -56,19 -15,0 -28,-2 -39,-7 -11,-5 -19,-12 -26,-21 -7,-9 -12,-20 -15,-32 -3,-12 -5,-26 -5,-40 0,-16 2,-30 7,-43 5,-13 11,-23 19,-32 8,-9 17,-15 27,-20 10,-5 21,-7 32,-7 15,0 28,3 39,9 11,6 20,13 27,23 7,10 12,20 15,33 3,12 4,25 4,38l-162 0c0,13 2,25 5,36zm145 -78l0 0c-3,-11 -8,-20 -15,-28 -6,-8 -14,-14 -24,-19 -10,-5 -21,-7 -33,-7 -11,0 -20,2 -30,6 -9,4 -17,10 -24,18 -7,8 -13,17 -17,28 -4,11 -7,23 -8,37l155 0c0,-12 -2,-23 -5,-34zm305 -133l0 0 0 269 -8 0 0 -54 -1 0c-5,17 -14,31 -28,42 -13,11 -30,16 -50,16 -13,0 -24,-3 -34,-8 -10,-5 -19,-12 -26,-21 -7,-9 -13,-20 -16,-32 -4,-12 -6,-26 -6,-40 0,-14 2,-27 5,-39 4,-12 9,-23 16,-32 7,-9 16,-17 26,-22 10,-6 22,-8 35,-8 21,0 38,5 51,16 13,11 22,25 27,43l1 0 0 -130 8 0zm-29 103l0 0c-14,-16 -33,-24 -57,-24 -13,0 -24,3 -34,8 -10,6 -17,13 -23,22 -6,9 -11,19 -13,30 -3,11 -4,22 -4,34 0,12 2,24 5,35 3,11 8,21 14,30 6,9 14,16 23,21 9,5 20,8 33,8 13,0 24,-3 33,-8 10,-5 18,-12 25,-20 7,-9 12,-18 15,-30 4,-11 5,-23 5,-36 0,-30 -7,-54 -21,-70zm212 167l0 0 0 -48 -1 0c-4,15 -11,28 -23,37 -12,10 -27,15 -47,15 -10,0 -19,-1 -28,-4 -8,-3 -16,-7 -22,-13 -6,-6 -11,-13 -14,-22 -3,-9 -5,-19 -5,-30l0 -129 8 0 0 127c0,11 2,21 5,29 3,8 8,14 13,20 6,5 12,9 20,11 7,2 15,4 24,4 12,0 22,-2 31,-7 9,-4 16,-10 22,-18 6,-7 10,-16 13,-26 3,-10 5,-20 5,-31l0 -110 8 0 0 194 -8 0zm304 0l0 0 0 -37 -1 0c-3,6 -6,12 -11,17 -5,5 -10,10 -17,13 -6,4 -13,6 -20,8 -7,2 -14,3 -21,3 -15,0 -28,-3 -39,-8 -11,-5 -20,-13 -27,-22 -7,-9 -13,-20 -16,-33 -4,-12 -5,-26 -5,-39 0,-14 2,-27 5,-39 4,-12 9,-23 16,-33 7,-9 16,-17 27,-22 11,-6 24,-8 39,-8 7,0 14,1 21,3 7,2 13,4 19,8 6,4 11,8 16,13 5,5 8,11 11,18l1 0 0 -112 24 0 0 269 -22 0zm-130 -67l0 0c2,10 6,19 11,27 5,8 12,14 20,19 8,5 18,7 29,7 13,0 23,-2 32,-7 9,-5 16,-11 21,-19 5,-8 9,-17 12,-27 2,-10 4,-20 4,-30 0,-10 -1,-20 -4,-30 -2,-10 -6,-19 -12,-27 -5,-8 -12,-14 -21,-19 -9,-5 -19,-7 -32,-7 -11,0 -21,2 -29,7 -8,5 -15,11 -20,19 -5,8 -9,17 -11,27 -2,10 -4,20 -4,30 0,10 1,20 4,30zm214 3l0 0c2,9 6,17 12,25 5,7 12,13 20,18 8,5 18,7 29,7 17,0 31,-5 41,-14 10,-9 17,-21 20,-36l24 0c-5,22 -14,39 -28,51 -13,12 -32,18 -57,18 -15,0 -29,-3 -40,-8 -11,-5 -20,-13 -27,-22 -7,-9 -12,-20 -16,-33 -3,-12 -5,-26 -5,-39 0,-13 2,-25 5,-38 3,-12 9,-23 16,-33 7,-10 16,-17 27,-23 11,-6 24,-9 40,-9 16,0 29,3 40,9 11,6 20,15 27,25 7,10 12,22 15,35 3,13 4,27 4,40l-150 0c0,9 1,17 4,27zm118 -73l0 0c-3,-8 -7,-16 -12,-22 -5,-6 -12,-12 -19,-15 -8,-4 -16,-6 -26,-6 -10,0 -18,2 -26,6 -8,4 -14,9 -19,15 -5,6 -9,14 -13,22 -3,8 -5,17 -6,26l126 0c0,-9 -2,-18 -5,-26zm-82 -85l0 0 40 -53 29 0 -50 53 -19 0zm147 27l0 0 61 171 1 0 60 -171 25 0 -73 195 -25 0 -75 -195 26 0zm187 130l0 0c2,9 6,17 12,25 5,7 12,13 20,18 8,5 18,7 29,7 17,0 31,-5 41,-14 10,-9 17,-21 20,-36l24 0c-5,22 -14,39 -28,51 -13,12 -32,18 -57,18 -15,0 -29,-3 -40,-8 -11,-5 -20,-13 -27,-22 -7,-9 -12,-20 -16,-33 -3,-12 -5,-26 -5,-39 0,-13 2,-25 5,-38 3,-12 9,-23 16,-33 7,-10 16,-17 27,-23 11,-6 24,-9 40,-9 16,0 29,3 40,9 11,6 20,15 27,25 7,10 12,22 15,35 3,13 4,27 4,40l-150 0c0,9 1,17 4,27zm118 -73l0 0c-3,-8 -7,-16 -12,-22 -5,-6 -12,-12 -19,-15 -8,-4 -16,-6 -26,-6 -10,0 -18,2 -26,6 -8,4 -14,9 -19,15 -5,6 -9,14 -13,22 -3,8 -5,17 -6,26l126 0c0,-9 -2,-18 -5,-26zm84 -132l0 0 0 269 -24 0 0 -269 24 0zm167 77l0 0c11,6 21,13 29,22 8,9 14,20 18,33 4,12 6,26 6,40 0,14 -2,27 -6,40 -4,12 -10,23 -18,33 -8,9 -17,17 -29,22 -11,5 -25,8 -39,8 -15,0 -28,-3 -39,-8 -11,-5 -21,-13 -29,-22 -8,-9 -14,-20 -18,-33 -4,-12 -6,-26 -6,-40 0,-14 2,-27 6,-40 4,-12 10,-23 18,-33 8,-9 17,-17 29,-22 11,-6 25,-8 39,-8 15,0 28,3 39,8zm-69 19l0 0c-9,5 -16,11 -21,19 -6,8 -10,17 -13,27 -3,10 -4,20 -4,30 0,10 1,20 4,30 3,10 7,19 13,27 6,8 13,14 21,19 9,5 18,7 30,7 11,0 21,-2 30,-7 9,-5 16,-11 21,-19 6,-8 10,-17 13,-27 3,-10 4,-20 4,-30 0,-10 -1,-20 -4,-30 -3,-10 -7,-19 -13,-27 -6,-8 -13,-14 -21,-19 -9,-5 -18,-7 -30,-7 -11,0 -21,2 -30,7zm178 -22l0 0 0 37 1 0c6,-14 15,-24 27,-31 12,-7 27,-11 42,-11 15,0 28,3 39,8 11,6 20,13 27,22 7,9 13,20 16,33 4,12 5,26 5,39 0,14 -2,27 -5,39 -4,12 -9,23 -16,33 -7,9 -16,17 -27,22 -11,5 -24,8 -39,8 -7,0 -14,-1 -21,-3 -7,-2 -14,-4 -20,-8 -6,-4 -11,-8 -16,-13 -5,-5 -8,-11 -11,-18l-1 0 0 109 -24 0 0 -266 22 0zm130 67l0 0c-2,-10 -6,-19 -11,-27 -5,-8 -12,-14 -20,-19 -8,-5 -18,-7 -29,-7 -13,0 -24,2 -33,7 -9,5 -16,11 -21,18 -5,8 -9,16 -11,26 -2,10 -3,21 -3,32 0,10 1,20 4,30 2,10 6,19 12,27 5,8 12,14 21,19 9,5 19,7 32,7 11,0 21,-2 29,-7 8,-5 15,-11 20,-19 5,-8 9,-17 11,-27 2,-10 4,-20 4,-30 0,-10 -1,-20 -4,-30zm85 -67l0 0 0 37 1 0c6,-14 15,-24 27,-31 12,-7 27,-11 42,-11 15,0 28,3 39,8 11,6 20,13 27,22 7,9 13,20 16,33 4,12 5,26 5,39 0,14 -2,27 -5,39 -4,12 -9,23 -16,33 -7,9 -16,17 -27,22 -11,5 -24,8 -39,8 -7,0 -14,-1 -21,-3 -7,-2 -14,-4 -20,-8 -6,-4 -11,-8 -16,-13 -5,-5 -8,-11 -11,-18l-1 0 0 109 -24 0 0 -266 22 0zm130 67l0 0c-2,-10 -6,-19 -11,-27 -5,-8 -12,-14 -20,-19 -8,-5 -18,-7 -29,-7 -13,0 -24,2 -33,7 -9,5 -16,11 -21,18 -5,8 -9,16 -11,26 -2,10 -3,21 -3,32 0,10 1,20 4,30 2,10 6,19 12,27 5,8 12,14 21,19 9,5 19,7 32,7 11,0 21,-2 29,-7 8,-5 15,-11 20,-19 5,-8 9,-17 11,-27 2,-10 4,-20 4,-30 0,-10 -1,-20 -4,-30zm81 63l0 0c2,9 6,17 12,25 5,7 12,13 20,18 8,5 18,7 29,7 17,0 31,-5 41,-14 10,-9 17,-21 20,-36l24 0c-5,22 -14,39 -28,51 -13,12 -32,18 -57,18 -15,0 -29,-3 -40,-8 -11,-5 -20,-13 -27,-22 -7,-9 -12,-20 -16,-33 -3,-12 -5,-26 -5,-39 0,-13 2,-25 5,-38 3,-12 9,-23 16,-33 7,-10 16,-17 27,-23 11,-6 24,-9 40,-9 16,0 29,3 40,9 11,6 20,15 27,25 7,10 12,22 15,35 3,13 4,27 4,40l-150 0c0,9 1,17 4,27zm118 -73l0 0c-3,-8 -7,-16 -12,-22 -5,-6 -12,-12 -19,-15 -8,-4 -16,-6 -26,-6 -10,0 -18,2 -26,6 -8,4 -14,9 -19,15 -5,6 -9,14 -13,22 -3,8 -5,17 -6,26l126 0c0,-9 -2,-18 -5,-26zm195 137l0 0 0 -35 -1 0c-6,13 -15,23 -27,30 -12,7 -25,10 -40,10 -12,0 -23,-2 -31,-5 -9,-3 -16,-8 -21,-15 -5,-6 -9,-14 -12,-23 -3,-9 -4,-19 -4,-31l0 -126 24 0 0 127c1,18 5,31 12,40 8,9 21,14 40,14 10,0 19,-2 26,-7 7,-4 13,-10 18,-18 5,-7 8,-16 11,-25 2,-9 3,-19 3,-29l0 -102 24 0 0 195 -22 0zm88 -195l0 0 0 46 1 0c6,-16 15,-28 28,-37 13,-9 28,-12 45,-12l0 24c-11,-1 -21,1 -29,4 -9,3 -16,8 -23,15 -6,6 -11,14 -15,22 -4,9 -5,18 -5,28l0 104 -24 0 0 -195 22 0z"/>
  </g>
  <g id="_334824928">
   <path class="fil1" d="M310 1323l0 269 -8 0 0 -269 8 0zm42 210l0 0c3,11 7,21 13,29 6,8 14,15 23,20 10,5 21,7 35,7 20,0 37,-5 51,-16 13,-11 22,-27 25,-48l8 0c-3,23 -12,40 -27,53 -15,12 -34,19 -56,19 -15,0 -28,-2 -39,-7 -11,-5 -19,-12 -26,-21 -7,-9 -12,-20 -15,-32 -3,-12 -5,-26 -5,-40 0,-16 2,-30 7,-43 5,-13 11,-23 19,-32 8,-9 17,-15 27,-20 10,-5 21,-7 32,-7 15,0 28,3 39,9 11,6 20,13 27,23 7,10 12,20 15,33 3,12 4,25 4,38l-162 0c0,13 2,25 5,36zm145 -78l0 0c-3,-11 -8,-20 -15,-28 -6,-8 -14,-14 -24,-19 -10,-5 -21,-7 -33,-7 -11,0 -20,2 -30,6 -9,4 -17,10 -24,18 -7,8 -13,17 -17,28 -4,11 -7,23 -8,37l155 0c0,-12 -2,-23 -5,-34zm154 -57l0 0 0 48 1 0c2,-8 5,-14 8,-21 4,-6 8,-12 14,-17 6,-5 12,-8 18,-11 7,-3 14,-4 21,-4 15,-1 28,3 38,12 10,8 17,19 20,34l1 0c4,-14 11,-25 22,-33 11,-8 24,-12 39,-12 12,0 22,2 29,5 8,4 14,8 19,15 5,6 8,14 10,22 2,9 3,18 3,29l0 127 -8 0 0 -127c0,-10 -1,-18 -2,-26 -2,-8 -5,-14 -9,-20 -4,-6 -10,-10 -17,-13 -7,-3 -16,-5 -26,-5 -9,0 -18,2 -25,5 -8,4 -14,9 -19,15 -5,6 -9,14 -12,22 -3,8 -4,17 -4,26l0 123 -8 0 0 -124c0,-9 -1,-18 -2,-26 -1,-8 -4,-15 -8,-21 -4,-6 -9,-11 -16,-14 -7,-4 -16,-5 -26,-5 -10,0 -18,2 -26,7 -8,4 -14,10 -20,18 -5,7 -10,16 -12,26 -3,10 -4,20 -4,31l0 110 -8 0 0 -194 8 0zm290 35l0 0c3,-8 8,-15 14,-21 6,-6 14,-10 23,-14 9,-3 19,-5 31,-5 9,0 17,1 24,3 8,2 14,5 20,9 6,4 10,10 14,17 4,7 5,16 6,26l0 123c0,4 1,7 2,8 2,2 4,3 6,4 3,1 5,1 8,1 3,0 6,0 8,-1l0 8 -11 0c-6,0 -10,-1 -15,-4 -4,-3 -6,-8 -6,-15l0 -25 -1 0c-2,6 -5,12 -10,18 -4,6 -10,11 -17,15 -7,5 -14,8 -23,11 -9,3 -18,4 -28,4 -20,0 -35,-4 -47,-13 -12,-9 -18,-22 -18,-39 0,-12 2,-22 6,-29 4,-7 9,-13 15,-17 6,-4 13,-7 21,-9 8,-2 16,-3 24,-3 13,-1 25,-1 34,-2 10,-1 17,-2 24,-4 6,-2 11,-5 14,-9 3,-4 4,-9 4,-17 0,-6 -1,-12 -2,-18 -1,-6 -3,-12 -7,-17 -4,-5 -10,-10 -17,-13 -8,-3 -18,-5 -31,-5 -20,0 -36,5 -48,15 -11,10 -18,24 -19,42l-8 0c1,-9 2,-18 6,-25zm124 45l0 0c-3,4 -6,6 -12,8 -5,2 -11,3 -18,4 -7,1 -14,2 -22,2 -8,0 -16,1 -23,1 -8,1 -15,1 -22,3 -7,1 -14,4 -19,8 -6,4 -10,9 -13,15 -3,6 -5,15 -5,25 0,6 1,11 3,16 2,5 5,10 10,14 5,4 10,8 18,10 7,3 16,4 27,4 13,0 24,-2 34,-6 10,-4 18,-10 25,-17 7,-7 12,-15 15,-24 3,-9 5,-18 5,-28l0 -36 -1 0zm198 49l0 0c-2,9 -6,16 -11,23 -5,7 -11,13 -18,17 -7,5 -14,8 -23,11 -8,2 -16,4 -25,4 -14,0 -25,-3 -35,-8 -10,-5 -18,-12 -25,-20 -7,-8 -12,-18 -15,-30 -3,-11 -5,-23 -5,-35 0,-13 2,-25 5,-37 4,-11 9,-22 16,-30 7,-9 16,-16 26,-21 10,-5 22,-8 36,-8 9,0 18,1 26,4 8,3 15,7 22,12 6,5 12,11 16,18 4,7 8,14 10,22l1 0 0 -52 8 0 0 187c0,27 -7,46 -21,59 -14,12 -34,19 -60,19 -10,0 -19,-1 -28,-3 -9,-2 -17,-6 -23,-11 -7,-5 -12,-11 -16,-19 -4,-8 -6,-17 -6,-28l8 0c0,10 2,18 6,25 4,7 8,12 15,17 6,4 13,7 21,9 8,2 16,3 25,3 24,0 42,-6 54,-17 13,-11 19,-29 19,-53l0 -58 -1 0zm-4 -71l0 0c-3,-11 -8,-20 -14,-28 -6,-8 -14,-15 -23,-20 -9,-5 -20,-7 -32,-7 -13,0 -24,2 -33,7 -9,5 -17,11 -24,19 -6,8 -11,17 -14,28 -3,11 -5,22 -5,34 0,12 2,23 5,34 3,10 8,19 14,27 6,8 14,14 23,18 9,4 19,7 31,7 13,0 24,-2 33,-7 10,-5 18,-11 24,-18 6,-8 11,-17 15,-27 3,-10 5,-21 5,-33 0,-11 -2,-22 -5,-32zm58 -24l0 0c3,-8 8,-15 14,-21 6,-6 14,-10 23,-14 9,-3 19,-5 31,-5 9,0 17,1 24,3 8,2 14,5 20,9 6,4 10,10 14,17 4,7 5,16 6,26l0 123c0,4 1,7 2,8 2,2 4,3 6,4 3,1 5,1 8,1 3,0 6,0 8,-1l0 8 -11 0c-6,0 -10,-1 -15,-4 -4,-3 -6,-8 -6,-15l0 -25 -1 0c-2,6 -5,12 -10,18 -4,6 -10,11 -17,15 -7,5 -14,8 -23,11 -9,3 -18,4 -28,4 -20,0 -35,-4 -47,-13 -12,-9 -18,-22 -18,-39 0,-12 2,-22 6,-29 4,-7 9,-13 15,-17 6,-4 13,-7 21,-9 8,-2 16,-3 24,-3 13,-1 25,-1 34,-2 10,-1 17,-2 24,-4 6,-2 11,-5 14,-9 3,-4 4,-9 4,-17 0,-6 -1,-12 -2,-18 -1,-6 -3,-12 -7,-17 -4,-5 -10,-10 -17,-13 -8,-3 -18,-5 -31,-5 -20,0 -36,5 -48,15 -11,10 -18,24 -19,42l-8 0c1,-9 2,-18 6,-25zm124 45l0 0c-3,4 -6,6 -12,8 -5,2 -11,3 -18,4 -7,1 -14,2 -22,2 -8,0 -16,1 -23,1 -8,1 -15,1 -22,3 -7,1 -14,4 -19,8 -6,4 -10,9 -13,15 -3,6 -5,15 -5,25 0,6 1,11 3,16 2,5 5,10 10,14 5,4 10,8 18,10 7,3 16,4 27,4 13,0 24,-2 34,-6 10,-4 18,-10 25,-17 7,-7 12,-15 15,-24 3,-9 5,-18 5,-28l0 -36 -1 0zm182 114l0 0 -150 0 0 -9 136 -177 -126 0 0 -8 133 0 0 9 -136 177 142 0 0 8zm22 -231l0 0 0 -38 8 0 0 38 -8 0zm0 231l0 0 0 -194 8 0 0 194 -8 0zm56 -194l0 0 0 48 1 0c2,-8 5,-14 8,-21 4,-6 9,-12 15,-17 6,-5 13,-8 21,-11 8,-3 16,-4 26,-4 10,0 19,2 28,5 8,3 16,7 22,13 6,6 11,13 14,22 3,9 5,19 5,30l0 129 -8 0 0 -127c0,-11 -2,-21 -5,-29 -3,-8 -8,-14 -13,-20 -6,-5 -12,-9 -20,-11 -7,-2 -15,-4 -24,-4 -12,0 -22,2 -31,7 -9,4 -16,10 -22,18 -6,7 -10,16 -13,26 -3,10 -5,20 -5,31l0 110 -8 0 0 -194 8 0zm181 135l0 0c3,11 7,21 13,29 6,8 14,15 23,20 10,5 21,7 35,7 20,0 37,-5 51,-16 13,-11 22,-27 25,-48l8 0c-3,23 -12,40 -27,53 -15,12 -34,19 -56,19 -15,0 -28,-2 -39,-7 -11,-5 -19,-12 -26,-21 -7,-9 -12,-20 -15,-32 -3,-12 -5,-26 -5,-40 0,-16 2,-30 7,-43 5,-13 11,-23 19,-32 8,-9 17,-15 27,-20 10,-5 21,-7 32,-7 15,0 28,3 39,9 11,6 20,13 27,23 7,10 12,20 15,33 3,12 4,25 4,38l-162 0c0,13 2,25 5,36zm145 -78l0 0c-3,-11 -8,-20 -15,-28 -6,-8 -14,-14 -24,-19 -10,-5 -21,-7 -33,-7 -11,0 -20,2 -30,6 -9,4 -17,10 -24,18 -7,8 -13,17 -17,28 -4,11 -7,23 -8,37l155 0c0,-12 -2,-23 -5,-34zm305 -133l0 0 0 269 -8 0 0 -54 -1 0c-5,17 -14,31 -28,42 -13,11 -30,16 -50,16 -13,0 -24,-3 -34,-8 -10,-5 -19,-12 -26,-21 -7,-9 -13,-20 -16,-32 -4,-12 -6,-26 -6,-40 0,-14 2,-27 5,-39 4,-12 9,-23 16,-32 7,-9 16,-17 26,-22 10,-6 22,-8 35,-8 21,0 38,5 51,16 13,11 22,25 27,43l1 0 0 -130 8 0zm-29 103l0 0c-14,-16 -33,-24 -57,-24 -13,0 -24,3 -34,8 -10,6 -17,13 -23,22 -6,9 -11,19 -13,30 -3,11 -4,22 -4,34 0,12 2,24 5,35 3,11 8,21 14,30 6,9 14,16 23,21 9,5 20,8 33,8 13,0 24,-3 33,-8 10,-5 18,-12 25,-20 7,-9 12,-18 15,-30 4,-11 5,-23 5,-36 0,-30 -7,-54 -21,-70zm212 167l0 0 0 -48 -1 0c-4,15 -11,28 -23,37 -12,10 -27,15 -47,15 -10,0 -19,-1 -28,-4 -8,-3 -16,-7 -22,-13 -6,-6 -11,-13 -14,-22 -3,-9 -5,-19 -5,-30l0 -129 8 0 0 127c0,11 2,21 5,29 3,8 8,14 13,20 6,5 12,9 20,11 7,2 15,4 24,4 12,0 22,-2 31,-7 9,-4 16,-10 22,-18 6,-7 10,-16 13,-26 3,-10 5,-20 5,-31l0 -110 8 0 0 194 -8 0zm304 0l0 0 0 -37 -1 0c-3,6 -6,12 -11,17 -5,5 -10,10 -17,13 -6,4 -13,6 -20,8 -7,2 -14,3 -21,3 -15,0 -28,-3 -39,-8 -11,-5 -20,-13 -27,-22 -7,-9 -13,-20 -16,-33 -4,-12 -5,-26 -5,-39 0,-14 2,-27 5,-39 4,-12 9,-23 16,-33 7,-9 16,-17 27,-22 11,-6 24,-8 39,-8 7,0 14,1 21,3 7,2 13,4 19,8 6,4 11,8 16,13 5,5 8,11 11,18l1 0 0 -112 24 0 0 269 -22 0zm-130 -67l0 0c2,10 6,19 11,27 5,8 12,14 20,19 8,5 18,7 29,7 13,0 23,-2 32,-7 9,-5 16,-11 21,-19 5,-8 9,-17 12,-27 2,-10 4,-20 4,-30 0,-10 -1,-20 -4,-30 -2,-10 -6,-19 -12,-27 -5,-8 -12,-14 -21,-19 -9,-5 -19,-7 -32,-7 -11,0 -21,2 -29,7 -8,5 -15,11 -20,19 -5,8 -9,17 -11,27 -2,10 -4,20 -4,30 0,10 1,20 4,30zm214 3l0 0c2,9 6,17 12,25 5,7 12,13 20,18 8,5 18,7 29,7 17,0 31,-5 41,-14 10,-9 17,-21 20,-36l24 0c-5,22 -14,39 -28,51 -13,12 -32,18 -57,18 -15,0 -29,-3 -40,-8 -11,-5 -20,-13 -27,-22 -7,-9 -12,-20 -16,-33 -3,-12 -5,-26 -5,-39 0,-13 2,-25 5,-38 3,-12 9,-23 16,-33 7,-10 16,-17 27,-23 11,-6 24,-9 40,-9 16,0 29,3 40,9 11,6 20,15 27,25 7,10 12,22 15,35 3,13 4,27 4,40l-150 0c0,9 1,17 4,27zm118 -73l0 0c-3,-8 -7,-16 -12,-22 -5,-6 -12,-12 -19,-15 -8,-4 -16,-6 -26,-6 -10,0 -18,2 -26,6 -8,4 -14,9 -19,15 -5,6 -9,14 -13,22 -3,8 -5,17 -6,26l126 0c0,-9 -2,-18 -5,-26zm-82 -85l0 0 40 -53 29 0 -50 53 -19 0zm147 27l0 0 61 171 1 0 60 -171 25 0 -73 195 -25 0 -75 -195 26 0zm187 130l0 0c2,9 6,17 12,25 5,7 12,13 20,18 8,5 18,7 29,7 17,0 31,-5 41,-14 10,-9 17,-21 20,-36l24 0c-5,22 -14,39 -28,51 -13,12 -32,18 -57,18 -15,0 -29,-3 -40,-8 -11,-5 -20,-13 -27,-22 -7,-9 -12,-20 -16,-33 -3,-12 -5,-26 -5,-39 0,-13 2,-25 5,-38 3,-12 9,-23 16,-33 7,-10 16,-17 27,-23 11,-6 24,-9 40,-9 16,0 29,3 40,9 11,6 20,15 27,25 7,10 12,22 15,35 3,13 4,27 4,40l-150 0c0,9 1,17 4,27zm118 -73l0 0c-3,-8 -7,-16 -12,-22 -5,-6 -12,-12 -19,-15 -8,-4 -16,-6 -26,-6 -10,0 -18,2 -26,6 -8,4 -14,9 -19,15 -5,6 -9,14 -13,22 -3,8 -5,17 -6,26l126 0c0,-9 -2,-18 -5,-26zm84 -132l0 0 0 269 -24 0 0 -269 24 0zm167 77l0 0c11,6 21,13 29,22 8,9 14,20 18,33 4,12 6,26 6,40 0,14 -2,27 -6,40 -4,12 -10,23 -18,33 -8,9 -17,17 -29,22 -11,5 -25,8 -39,8 -15,0 -28,-3 -39,-8 -11,-5 -21,-13 -29,-22 -8,-9 -14,-20 -18,-33 -4,-12 -6,-26 -6,-40 0,-14 2,-27 6,-40 4,-12 10,-23 18,-33 8,-9 17,-17 29,-22 11,-6 25,-8 39,-8 15,0 28,3 39,8zm-69 19l0 0c-9,5 -16,11 -21,19 -6,8 -10,17 -13,27 -3,10 -4,20 -4,30 0,10 1,20 4,30 3,10 7,19 13,27 6,8 13,14 21,19 9,5 18,7 30,7 11,0 21,-2 30,-7 9,-5 16,-11 21,-19 6,-8 10,-17 13,-27 3,-10 4,-20 4,-30 0,-10 -1,-20 -4,-30 -3,-10 -7,-19 -13,-27 -6,-8 -13,-14 -21,-19 -9,-5 -18,-7 -30,-7 -11,0 -21,2 -30,7zm178 -22l0 0 0 37 1 0c6,-14 15,-24 27,-31 12,-7 27,-11 42,-11 15,0 28,3 39,8 11,6 20,13 27,22 7,9 13,20 16,33 4,12 5,26 5,39 0,14 -2,27 -5,39 -4,12 -9,23 -16,33 -7,9 -16,17 -27,22 -11,5 -24,8 -39,8 -7,0 -14,-1 -21,-3 -7,-2 -14,-4 -20,-8 -6,-4 -11,-8 -16,-13 -5,-5 -8,-11 -11,-18l-1 0 0 109 -24 0 0 -266 22 0zm130 67l0 0c-2,-10 -6,-19 -11,-27 -5,-8 -12,-14 -20,-19 -8,-5 -18,-7 -29,-7 -13,0 -24,2 -33,7 -9,5 -16,11 -21,18 -5,8 -9,16 -11,26 -2,10 -3,21 -3,32 0,10 1,20 4,30 2,10 6,19 12,27 5,8 12,14 21,19 9,5 19,7 32,7 11,0 21,-2 29,-7 8,-5 15,-11 20,-19 5,-8 9,-17 11,-27 2,-10 4,-20 4,-30 0,-10 -1,-20 -4,-30zm85 -67l0 0 0 37 1 0c6,-14 15,-24 27,-31 12,-7 27,-11 42,-11 15,0 28,3 39,8 11,6 20,13 27,22 7,9 13,20 16,33 4,12 5,26 5,39 0,14 -2,27 -5,39 -4,12 -9,23 -16,33 -7,9 -16,17 -27,22 -11,5 -24,8 -39,8 -7,0 -14,-1 -21,-3 -7,-2 -14,-4 -20,-8 -6,-4 -11,-8 -16,-13 -5,-5 -8,-11 -11,-18l-1 0 0 109 -24 0 0 -266 22 0zm130 67l0 0c-2,-10 -6,-19 -11,-27 -5,-8 -12,-14 -20,-19 -8,-5 -18,-7 -29,-7 -13,0 -24,2 -33,7 -9,5 -16,11 -21,18 -5,8 -9,16 -11,26 -2,10 -3,21 -3,32 0,10 1,20 4,30 2,10 6,19 12,27 5,8 12,14 21,19 9,5 19,7 32,7 11,0 21,-2 29,-7 8,-5 15,-11 20,-19 5,-8 9,-17 11,-27 2,-10 4,-20 4,-30 0,-10 -1,-20 -4,-30zm81 63l0 0c2,9 6,17 12,25 5,7 12,13 20,18 8,5 18,7 29,7 17,0 31,-5 41,-14 10,-9 17,-21 20,-36l24 0c-5,22 -14,39 -28,51 -13,12 -32,18 -57,18 -15,0 -29,-3 -40,-8 -11,-5 -20,-13 -27,-22 -7,-9 -12,-20 -16,-33 -3,-12 -5,-26 -5,-39 0,-13 2,-25 5,-38 3,-12 9,-23 16,-33 7,-10 16,-17 27,-23 11,-6 24,-9 40,-9 16,0 29,3 40,9 11,6 20,15 27,25 7,10 12,22 15,35 3,13 4,27 4,40l-150 0c0,9 1,17 4,27zm118 -73l0 0c-3,-8 -7,-16 -12,-22 -5,-6 -12,-12 -19,-15 -8,-4 -16,-6 -26,-6 -10,0 -18,2 -26,6 -8,4 -14,9 -19,15 -5,6 -9,14 -13,22 -3,8 -5,17 -6,26l126 0c0,-9 -2,-18 -5,-26zm195 137l0 0 0 -35 -1 0c-6,13 -15,23 -27,30 -12,7 -25,10 -40,10 -12,0 -23,-2 -31,-5 -9,-3 -16,-8 -21,-15 -5,-6 -9,-14 -12,-23 -3,-9 -4,-19 -4,-31l0 -126 24 0 0 127c1,18 5,31 12,40 8,9 21,14 40,14 10,0 19,-2 26,-7 7,-4 13,-10 18,-18 5,-7 8,-16 11,-25 2,-9 3,-19 3,-29l0 -102 24 0 0 195 -22 0zm88 -195l0 0 0 46 1 0c6,-16 15,-28 28,-37 13,-9 28,-12 45,-12l0 24c-11,-1 -21,1 -29,4 -9,3 -16,8 -23,15 -6,6 -11,14 -15,22 -4,9 -5,18 -5,28l0 104 -24 0 0 -195 22 0z"/>
  </g>
  <g style="clip-path:url(#id0)">
   <image transform="matrix(1 0 0 1 -3968.33 1371.67)" x="3968" y="-1372" width="7937" height="2743" xlink:href="p1aqhdr6jfbm6inh1tfggr3rs44_Images\p1aqhdr6jfbm6inh1tfggr3rs44_ImgID1.png"/>
  </g>
  <g id="_334802200">
   <path class="fil2" d="M5296 1473l24 0 20 86 0 0 19 -86 23 0 19 86 0 0 21 -86 23 0 -33 115 -23 0 -19 -86 0 0 -19 86 -24 0 -32 -115zm155 0l0 0 24 0 20 86 0 0 19 -86 23 0 19 86 0 0 21 -86 23 0 -33 115 -23 0 -19 -86 0 0 -19 86 -24 0 -32 -115zm155 0l0 0 24 0 20 86 0 0 19 -86 23 0 19 86 0 0 21 -86 23 0 -33 115 -23 0 -19 -86 0 0 -19 86 -24 0 -32 -115zm154 85l0 0 28 0 0 30 -28 0 0 -30zm52 -85l0 0 22 0 0 16 0 0c3,-7 8,-11 13,-14 6,-3 12,-4 19,-4 8,0 15,2 21,5 6,3 11,8 15,13 4,6 7,12 9,20 2,7 3,15 3,24 0,8 -1,15 -3,23 -2,7 -5,14 -8,19 -4,6 -8,10 -14,13 -6,3 -12,5 -20,5 -3,0 -7,0 -10,-1 -3,-1 -7,-2 -10,-3 -3,-1 -6,-3 -9,-6 -3,-2 -5,-5 -7,-8l0 0 0 58 -23 0 0 -158zm80 58l0 0c0,-5 -1,-10 -2,-15 -1,-5 -3,-9 -5,-13 -2,-4 -5,-7 -9,-9 -4,-2 -8,-3 -12,-3 -10,0 -17,4 -22,11 -5,7 -7,17 -7,30 0,6 1,11 2,16 1,5 3,9 6,13 3,4 6,6 9,8 4,2 8,3 12,3 5,0 10,-1 13,-4 4,-2 7,-5 9,-9 2,-4 4,-8 5,-13 1,-5 2,-10 2,-15zm44 -58l0 0 21 0 0 22 0 0c1,-3 2,-6 4,-9 2,-3 4,-6 7,-8 3,-2 6,-4 9,-6 3,-1 7,-2 10,-2 3,0 5,0 6,0 1,0 2,0 3,0l0 25c-2,0 -3,-1 -5,-1 -2,0 -3,0 -5,0 -4,0 -8,1 -11,3 -3,2 -6,4 -9,8 -3,3 -5,7 -6,12 -1,5 -2,11 -2,17l0 55 -23 0 0 -115zm113 118l0 0c-8,0 -16,-2 -22,-5 -6,-3 -12,-7 -16,-13 -4,-5 -8,-12 -10,-19 -2,-7 -4,-16 -4,-25 0,-9 1,-17 4,-24 2,-7 6,-14 10,-19 4,-5 10,-10 16,-13 6,-3 14,-5 22,-5 8,0 16,2 22,5 6,3 12,7 16,13 4,5 8,12 10,19 2,7 4,16 4,24 0,9 -1,17 -4,25 -2,7 -6,14 -10,19 -4,5 -10,10 -16,13 -7,3 -14,5 -22,5zm0 -20l0 0c5,0 9,-1 13,-4 4,-2 7,-5 9,-9 2,-4 4,-8 5,-13 1,-5 2,-10 2,-15 0,-5 -1,-10 -2,-15 -1,-5 -3,-9 -5,-13 -2,-4 -5,-7 -9,-9 -4,-2 -8,-4 -13,-4 -5,0 -10,1 -13,4 -4,2 -7,5 -9,9 -2,4 -4,8 -5,13 -1,5 -2,10 -2,15 0,5 1,10 2,15 1,5 3,9 5,13 2,4 5,7 9,9 4,2 8,4 13,4zm167 11l0 0c0,17 -4,30 -13,39 -9,9 -21,13 -38,13 -5,0 -10,-1 -16,-2 -5,-1 -10,-3 -14,-6 -4,-3 -8,-7 -11,-11 -3,-5 -5,-10 -5,-17l23 0c1,4 2,6 3,9 2,2 4,4 6,5 2,1 5,2 7,2 3,0 5,1 8,1 9,0 16,-3 20,-8 4,-5 6,-12 6,-22l0 -18 0 0c-3,6 -8,11 -13,15 -6,4 -12,5 -18,5 -8,0 -15,-2 -21,-5 -6,-3 -11,-8 -14,-13 -4,-6 -7,-12 -8,-19 -2,-7 -3,-15 -3,-23 0,-8 1,-15 3,-22 2,-7 5,-13 9,-18 4,-5 9,-9 15,-13 6,-3 12,-5 20,-5 7,0 13,2 18,5 5,3 10,8 13,14l0 0 0 -16 23 0 0 109zm-51 -14l0 0c5,0 9,-1 13,-3 4,-2 6,-5 9,-9 2,-4 4,-8 5,-13 1,-5 2,-10 2,-15 0,-5 -1,-10 -2,-14 -1,-5 -3,-9 -5,-12 -2,-4 -5,-6 -9,-8 -4,-2 -8,-3 -13,-3 -5,0 -9,1 -13,4 -3,2 -6,5 -8,9 -2,4 -4,8 -5,13 -1,5 -1,10 -1,14 0,5 1,9 2,14 1,5 3,9 5,12 2,4 5,6 8,9 3,2 8,3 12,3zm74 -95l0 0 21 0 0 22 0 0c1,-3 2,-6 4,-9 2,-3 4,-6 7,-8 3,-2 6,-4 9,-6 3,-1 7,-2 10,-2 3,0 5,0 6,0 1,0 2,0 3,0l0 25c-2,0 -3,-1 -5,-1 -2,0 -3,0 -5,0 -4,0 -8,1 -11,3 -3,2 -6,4 -9,8 -3,3 -5,7 -6,12 -1,5 -2,11 -2,17l0 55 -23 0 0 -115zm158 90l0 0c0,3 0,5 1,7 1,1 2,2 4,2 1,0 1,0 2,0 1,0 2,0 3,0l0 18c-1,0 -2,1 -3,1 -1,0 -3,1 -4,1 -1,0 -3,1 -4,1 -1,0 -2,0 -3,0 -5,0 -9,-1 -12,-3 -3,-2 -5,-6 -6,-11 -5,5 -10,8 -17,11 -7,2 -13,3 -19,3 -5,0 -9,-1 -13,-2 -4,-1 -8,-4 -11,-6 -3,-3 -6,-6 -8,-10 -2,-4 -3,-9 -3,-15 0,-7 1,-13 4,-17 2,-4 5,-8 9,-10 4,-3 8,-4 13,-5 5,-1 10,-2 14,-3 4,-1 8,-2 12,-2 4,0 7,-1 10,-2 3,-1 5,-2 7,-4 2,-2 3,-5 3,-8 0,-3 -1,-6 -2,-8 -1,-2 -3,-4 -5,-5 -2,-1 -4,-2 -7,-2 -3,0 -5,-1 -7,-1 -6,0 -12,1 -16,4 -4,3 -6,8 -7,14l-23 0c0,-7 2,-14 5,-19 3,-5 6,-9 11,-12 4,-3 9,-5 15,-6 5,-1 11,-2 17,-2 5,0 10,1 15,2 5,1 9,3 13,6 4,3 7,6 10,10 2,4 4,9 4,16l0 59zm-23 -32l0 0c-3,3 -8,4 -13,5 -5,1 -10,1 -15,2 -2,0 -5,1 -7,2 -2,1 -4,2 -6,3 -2,1 -3,3 -4,6 -1,2 -2,5 -2,8 0,3 1,5 2,7 1,2 3,3 5,5 2,1 4,2 7,2 2,0 5,1 7,1 3,0 5,0 8,-1 3,-1 6,-2 8,-4 3,-2 5,-4 7,-7 2,-3 3,-6 3,-10l0 -19zm49 -58l0 0 22 0 0 16 1 0c2,-3 4,-5 6,-8 2,-2 4,-4 7,-6 2,-2 5,-3 9,-4 3,-1 7,-1 11,-1 6,0 12,2 18,5 5,3 9,8 12,15 4,-6 8,-11 13,-14 5,-3 11,-5 19,-5 11,0 20,3 26,9 6,6 9,16 9,30l0 80 -23 0 0 -67c0,-5 0,-9 0,-13 0,-4 -1,-7 -2,-10 -1,-3 -3,-5 -6,-6 -3,-1 -6,-2 -10,-2 -8,0 -13,3 -17,8 -3,5 -5,13 -5,23l0 68 -23 0 0 -74c0,-8 -1,-14 -4,-18 -3,-4 -7,-6 -14,-6 -3,0 -6,1 -9,2 -3,1 -5,3 -7,6 -2,3 -4,6 -5,9 -1,4 -2,8 -2,13l0 69 -23 0 0 -115zm172 0l0 0 22 0 0 16 1 0c2,-3 4,-5 6,-8 2,-2 4,-4 7,-6 2,-2 5,-3 9,-4 3,-1 7,-1 11,-1 6,0 12,2 18,5 5,3 9,8 12,15 4,-6 8,-11 13,-14 5,-3 11,-5 19,-5 11,0 20,3 26,9 6,6 9,16 9,30l0 80 -23 0 0 -67c0,-5 0,-9 0,-13 0,-4 -1,-7 -2,-10 -1,-3 -3,-5 -6,-6 -3,-1 -6,-2 -10,-2 -8,0 -13,3 -17,8 -3,5 -5,13 -5,23l0 68 -23 0 0 -74c0,-8 -1,-14 -4,-18 -3,-4 -7,-6 -14,-6 -3,0 -6,1 -9,2 -3,1 -5,3 -7,6 -2,3 -4,6 -5,9 -1,4 -2,8 -2,13l0 69 -23 0 0 -115zm190 64l0 0c0,4 1,9 2,13 1,4 3,8 5,11 2,3 5,6 9,7 3,2 8,3 12,3 7,0 12,-2 16,-5 4,-3 7,-8 9,-14l22 0c-1,6 -3,12 -6,17 -3,5 -6,9 -11,12 -4,3 -9,6 -14,8 -5,2 -11,3 -16,3 -8,0 -15,-1 -22,-4 -6,-3 -12,-7 -16,-12 -4,-5 -8,-12 -10,-19 -2,-7 -3,-16 -3,-25 0,-8 1,-16 4,-23 2,-7 6,-14 10,-19 4,-6 10,-10 16,-13 6,-3 13,-5 21,-5 8,0 15,2 22,6 6,4 12,9 16,15 4,6 7,13 9,22 2,8 2,16 2,25l-76 0zm53 -17l0 0c0,-4 -1,-8 -2,-12 -1,-4 -3,-7 -5,-10 -2,-3 -5,-5 -8,-7 -3,-2 -7,-3 -11,-3 -4,0 -8,1 -11,2 -3,2 -6,4 -8,6 -2,3 -4,6 -6,10 -1,4 -2,8 -2,12l53 0zm38 -48l0 0 84 0 0 18 -59 77 62 0 0 20 -91 0 0 -18 57 -77 -53 0 0 -20zm107 85l0 0 28 0 0 30 -28 0 0 -30zm122 -47l0 0c-1,-7 -4,-13 -8,-16 -4,-4 -10,-5 -16,-5 -3,0 -6,1 -9,2 -3,1 -6,3 -9,6 -3,3 -5,7 -7,13 -2,5 -3,13 -3,21 0,5 1,10 2,14 1,5 3,9 5,13 2,4 5,7 9,9 3,2 8,3 13,3 7,0 12,-2 17,-7 4,-5 7,-11 8,-19l23 0c-2,15 -7,27 -15,34 -8,8 -19,12 -32,12 -8,0 -15,-2 -22,-5 -6,-3 -11,-7 -16,-12 -4,-5 -8,-12 -10,-19 -2,-7 -3,-15 -3,-24 0,-9 1,-17 3,-24 2,-8 5,-14 10,-20 4,-6 10,-10 16,-13 6,-3 14,-5 22,-5 6,0 12,1 17,3 5,2 10,4 14,8 4,3 8,8 10,13 3,5 4,11 5,19l-23 0zm91 80l0 0c-8,0 -16,-2 -22,-5 -6,-3 -12,-7 -16,-13 -4,-5 -8,-12 -10,-19 -2,-7 -4,-16 -4,-25 0,-9 1,-17 4,-24 2,-7 6,-14 10,-19 4,-5 10,-10 16,-13 6,-3 14,-5 22,-5 8,0 16,2 22,5 6,3 12,7 16,13 4,5 8,12 10,19 2,7 4,16 4,24 0,9 -1,17 -4,25 -2,7 -6,14 -10,19 -4,5 -10,10 -16,13 -7,3 -14,5 -22,5zm0 -20l0 0c5,0 9,-1 13,-4 4,-2 7,-5 9,-9 2,-4 4,-8 5,-13 1,-5 2,-10 2,-15 0,-5 -1,-10 -2,-15 -1,-5 -3,-9 -5,-13 -2,-4 -5,-7 -9,-9 -4,-2 -8,-4 -13,-4 -5,0 -10,1 -13,4 -4,2 -7,5 -9,9 -2,4 -4,8 -5,13 -1,5 -2,10 -2,15 0,5 1,10 2,15 1,5 3,9 5,13 2,4 5,7 9,9 4,2 8,4 13,4zm71 -98l0 0 22 0 0 16 1 0c2,-3 4,-5 6,-8 2,-2 4,-4 7,-6 2,-2 5,-3 9,-4 3,-1 7,-1 11,-1 6,0 12,2 18,5 5,3 9,8 12,15 4,-6 8,-11 13,-14 5,-3 11,-5 19,-5 11,0 20,3 26,9 6,6 9,16 9,30l0 80 -23 0 0 -67c0,-5 0,-9 0,-13 0,-4 -1,-7 -2,-10 -1,-3 -3,-5 -6,-6 -3,-1 -6,-2 -10,-2 -8,0 -13,3 -17,8 -3,5 -5,13 -5,23l0 68 -23 0 0 -74c0,-8 -1,-14 -4,-18 -3,-4 -7,-6 -14,-6 -3,0 -6,1 -9,2 -3,1 -5,3 -7,6 -2,3 -4,6 -5,9 -1,4 -2,8 -2,13l0 69 -23 0 0 -115z"/>
  </g>
 </g>
</svg>
